<svg width="780" height="360" viewBox="0 0 780 360" fill="none" xmlns="http://www.w3.org/2000/svg">
<g clip-path="url(#clip0_102_1458)">
<path fill-rule="evenodd" clip-rule="evenodd" d="M0 20C0 8.95431 8.95431 0 20 0L760 0C771.046 0 780 8.95431 780 20V340C780 351.046 771.046 360 760 360H20C8.9543 360 0 351.046 0 340L0 20Z" fill="#12141F"/>
<path d="M109.438 327.5C109.352 327.237 109.238 327.001 109.098 326.793C108.96 326.582 108.794 326.402 108.602 326.254C108.411 326.105 108.195 325.992 107.953 325.914C107.711 325.836 107.445 325.797 107.156 325.797C106.682 325.797 106.251 325.919 105.863 326.164C105.475 326.409 105.167 326.77 104.938 327.246C104.708 327.723 104.594 328.307 104.594 329C104.594 329.693 104.71 330.277 104.941 330.754C105.173 331.23 105.487 331.591 105.883 331.836C106.279 332.081 106.724 332.203 107.219 332.203C107.677 332.203 108.081 332.105 108.43 331.91C108.781 331.712 109.055 331.434 109.25 331.074C109.448 330.712 109.547 330.286 109.547 329.797L109.844 329.859H107.438V329H110.484V329.859C110.484 330.518 110.344 331.091 110.063 331.578C109.784 332.065 109.398 332.443 108.906 332.711C108.417 332.977 107.854 333.109 107.219 333.109C106.51 333.109 105.888 332.943 105.352 332.609C104.818 332.276 104.401 331.802 104.102 331.187C103.805 330.573 103.656 329.844 103.656 329C103.656 328.367 103.741 327.798 103.91 327.293C104.082 326.785 104.324 326.353 104.637 325.996C104.949 325.639 105.319 325.366 105.746 325.176C106.173 324.986 106.643 324.891 107.156 324.891C107.578 324.891 107.971 324.954 108.336 325.082C108.703 325.207 109.03 325.385 109.316 325.617C109.605 325.846 109.846 326.121 110.039 326.441C110.232 326.759 110.365 327.112 110.438 327.5H109.438ZM112.795 333V327H113.716V333H112.795ZM113.263 326C113.084 326 112.929 325.939 112.798 325.816C112.671 325.694 112.607 325.547 112.607 325.375C112.607 325.203 112.671 325.056 112.798 324.934C112.929 324.811 113.084 324.75 113.263 324.75C113.443 324.75 113.597 324.811 113.724 324.934C113.854 325.056 113.92 325.203 113.92 325.375C113.92 325.547 113.854 325.694 113.724 325.816C113.597 325.939 113.443 326 113.263 326ZM118.414 327V327.781H115.305V327H118.414ZM116.211 325.562H117.133V331.281C117.133 331.542 117.171 331.737 117.246 331.867C117.324 331.995 117.423 332.081 117.543 332.125C117.666 332.167 117.794 332.187 117.93 332.187C118.031 332.187 118.115 332.182 118.18 332.172C118.245 332.159 118.297 332.148 118.336 332.141L118.524 332.969C118.461 332.992 118.374 333.016 118.262 333.039C118.15 333.065 118.008 333.078 117.836 333.078C117.576 333.078 117.321 333.022 117.071 332.91C116.823 332.798 116.617 332.628 116.453 332.398C116.292 332.169 116.211 331.88 116.211 331.531V325.562ZM121.252 329.391V333H120.33V325H121.252V327.937H121.33C121.471 327.628 121.681 327.382 121.963 327.199C122.247 327.014 122.624 326.922 123.096 326.922C123.504 326.922 123.862 327.004 124.17 327.168C124.477 327.329 124.715 327.578 124.885 327.914C125.056 328.247 125.142 328.672 125.142 329.188V333H124.221V329.25C124.221 328.773 124.097 328.405 123.849 328.145C123.605 327.882 123.265 327.75 122.83 327.75C122.528 327.75 122.257 327.814 122.017 327.941C121.78 328.069 121.593 328.255 121.455 328.5C121.319 328.745 121.252 329.042 121.252 329.391ZM131.01 330.547V327H131.932V333H131.01V331.984H130.948C130.807 332.289 130.588 332.548 130.291 332.762C129.995 332.973 129.62 333.078 129.166 333.078C128.791 333.078 128.458 332.996 128.166 332.832C127.875 332.665 127.646 332.415 127.479 332.082C127.312 331.746 127.229 331.323 127.229 330.812V327H128.151V330.75C128.151 331.187 128.273 331.536 128.518 331.797C128.765 332.057 129.08 332.187 129.463 332.187C129.692 332.187 129.926 332.129 130.163 332.012C130.402 331.895 130.603 331.715 130.764 331.473C130.928 331.23 131.01 330.922 131.01 330.547ZM134.146 333V325H135.067V327.953H135.146C135.213 327.849 135.307 327.716 135.427 327.555C135.549 327.391 135.724 327.245 135.95 327.117C136.179 326.987 136.489 326.922 136.88 326.922C137.385 326.922 137.83 327.048 138.216 327.301C138.601 327.553 138.902 327.911 139.118 328.375C139.334 328.839 139.442 329.385 139.442 330.016C139.442 330.651 139.334 331.202 139.118 331.668C138.902 332.132 138.603 332.491 138.22 332.746C137.837 332.999 137.396 333.125 136.896 333.125C136.51 333.125 136.201 333.061 135.97 332.934C135.738 332.803 135.56 332.656 135.435 332.492C135.31 332.326 135.213 332.187 135.146 332.078H135.036V333H134.146ZM135.052 330C135.052 330.453 135.118 330.853 135.251 331.199C135.384 331.543 135.578 331.812 135.833 332.008C136.088 332.201 136.401 332.297 136.771 332.297C137.156 332.297 137.478 332.195 137.735 331.992C137.996 331.786 138.191 331.51 138.321 331.164C138.454 330.815 138.521 330.427 138.521 330C138.521 329.578 138.455 329.198 138.325 328.859C138.198 328.518 138.004 328.249 137.743 328.051C137.485 327.85 137.161 327.75 136.771 327.75C136.396 327.75 136.08 327.845 135.825 328.035C135.57 328.223 135.377 328.486 135.247 328.824C135.117 329.16 135.052 329.552 135.052 330Z" fill="#AAA7B2"/>
<path fill-rule="evenodd" clip-rule="evenodd" d="M89 324C85.6863 324 83 326.686 83 330C83 333.314 85.6863 336 89 336C92.3137 336 95 333.314 95 330C95 326.686 92.3137 324 89 324ZM89 327C87.3431 327 86 328.343 86 330C86 331.657 87.3431 333 89 333C90.6569 333 92 331.657 92 330C92 328.343 90.6569 327 89 327Z" fill="#7967E8"/>
<path d="M301.969 333V325H304.672C305.299 325 305.813 325.113 306.211 325.34C306.612 325.564 306.909 325.867 307.102 326.25C307.294 326.633 307.391 327.06 307.391 327.531C307.391 328.003 307.294 328.431 307.102 328.816C306.911 329.202 306.617 329.509 306.219 329.738C305.82 329.965 305.31 330.078 304.688 330.078H302.75V329.219H304.656C305.086 329.219 305.431 329.145 305.691 328.996C305.952 328.848 306.141 328.647 306.258 328.395C306.378 328.139 306.438 327.852 306.438 327.531C306.438 327.211 306.378 326.924 306.258 326.672C306.141 326.419 305.951 326.221 305.688 326.078C305.424 325.932 305.076 325.859 304.641 325.859H302.938V333H301.969ZM309.226 333V327H310.117V327.906H310.179C310.289 327.609 310.487 327.368 310.773 327.184C311.06 326.999 311.382 326.906 311.742 326.906C311.81 326.906 311.894 326.908 311.996 326.91C312.097 326.913 312.174 326.917 312.226 326.922V327.859C312.195 327.852 312.123 327.84 312.011 327.824C311.902 327.806 311.786 327.797 311.664 327.797C311.372 327.797 311.112 327.858 310.882 327.98C310.656 328.1 310.476 328.267 310.343 328.48C310.213 328.691 310.148 328.932 310.148 329.203V333H309.226ZM315.974 333.125C315.432 333.125 314.957 332.996 314.548 332.738C314.142 332.48 313.824 332.12 313.595 331.656C313.368 331.193 313.255 330.651 313.255 330.031C313.255 329.406 313.368 328.861 313.595 328.395C313.824 327.928 314.142 327.566 314.548 327.309C314.957 327.051 315.432 326.922 315.974 326.922C316.515 326.922 316.989 327.051 317.396 327.309C317.805 327.566 318.122 327.928 318.349 328.395C318.578 328.861 318.693 329.406 318.693 330.031C318.693 330.651 318.578 331.193 318.349 331.656C318.122 332.12 317.805 332.48 317.396 332.738C316.989 332.996 316.515 333.125 315.974 333.125ZM315.974 332.297C316.385 332.297 316.724 332.191 316.989 331.98C317.255 331.77 317.452 331.492 317.579 331.148C317.707 330.805 317.771 330.432 317.771 330.031C317.771 329.63 317.707 329.257 317.579 328.91C317.452 328.564 317.255 328.284 316.989 328.07C316.724 327.857 316.385 327.75 315.974 327.75C315.562 327.75 315.224 327.857 314.958 328.07C314.693 328.284 314.496 328.564 314.368 328.91C314.241 329.257 314.177 329.63 314.177 330.031C314.177 330.432 314.241 330.805 314.368 331.148C314.496 331.492 314.693 331.77 314.958 331.98C315.224 332.191 315.562 332.297 315.974 332.297ZM320.5 327H321.422V333.437C321.422 333.807 321.358 334.128 321.23 334.398C321.105 334.669 320.915 334.879 320.66 335.027C320.407 335.176 320.088 335.25 319.703 335.25C319.672 335.25 319.64 335.25 319.609 335.25C319.578 335.25 319.547 335.25 319.515 335.25V334.391C319.547 334.391 319.575 334.391 319.601 334.391C319.627 334.391 319.656 334.391 319.687 334.391C319.969 334.391 320.174 334.307 320.304 334.141C320.435 333.977 320.5 333.742 320.5 333.437V327ZM320.953 326C320.773 326 320.618 325.939 320.488 325.816C320.36 325.694 320.297 325.547 320.297 325.375C320.297 325.203 320.36 325.056 320.488 324.934C320.618 324.811 320.773 324.75 320.953 324.75C321.133 324.75 321.286 324.811 321.414 324.934C321.544 325.056 321.609 325.203 321.609 325.375C321.609 325.547 321.544 325.694 321.414 325.816C321.286 325.939 321.133 326 320.953 326ZM326.026 333.125C325.448 333.125 324.949 332.997 324.53 332.742C324.113 332.484 323.791 332.125 323.565 331.664C323.341 331.201 323.229 330.661 323.229 330.047C323.229 329.432 323.341 328.891 323.565 328.422C323.791 327.951 324.107 327.583 324.51 327.32C324.916 327.055 325.39 326.922 325.932 326.922C326.245 326.922 326.553 326.974 326.858 327.078C327.163 327.182 327.44 327.352 327.69 327.586C327.94 327.818 328.139 328.125 328.288 328.508C328.436 328.891 328.51 329.362 328.51 329.922V330.312H323.885V329.516H327.573C327.573 329.177 327.505 328.875 327.37 328.609C327.237 328.344 327.047 328.134 326.799 327.98C326.554 327.827 326.265 327.75 325.932 327.75C325.565 327.75 325.247 327.841 324.979 328.023C324.713 328.203 324.509 328.437 324.366 328.727C324.222 329.016 324.151 329.326 324.151 329.656V330.188C324.151 330.641 324.229 331.025 324.385 331.34C324.544 331.652 324.764 331.891 325.045 332.055C325.327 332.216 325.653 332.297 326.026 332.297C326.268 332.297 326.487 332.263 326.682 332.195C326.88 332.125 327.051 332.021 327.194 331.883C327.337 331.742 327.448 331.568 327.526 331.359L328.416 331.609C328.323 331.911 328.165 332.177 327.944 332.406C327.722 332.633 327.449 332.81 327.123 332.937C326.798 333.063 326.432 333.125 326.026 333.125ZM332.75 333.125C332.188 333.125 331.703 332.992 331.297 332.727C330.891 332.461 330.578 332.095 330.359 331.629C330.141 331.163 330.031 330.63 330.031 330.031C330.031 329.422 330.143 328.884 330.367 328.418C330.594 327.949 330.909 327.583 331.313 327.32C331.719 327.055 332.193 326.922 332.734 326.922C333.156 326.922 333.536 327 333.875 327.156C334.214 327.312 334.491 327.531 334.707 327.812C334.923 328.094 335.057 328.422 335.109 328.797H334.188C334.117 328.523 333.961 328.281 333.719 328.07C333.479 327.857 333.156 327.75 332.75 327.75C332.391 327.75 332.076 327.844 331.805 328.031C331.536 328.216 331.327 328.478 331.176 328.816C331.027 329.152 330.953 329.547 330.953 330C330.953 330.464 331.026 330.867 331.172 331.211C331.32 331.555 331.529 331.822 331.797 332.012C332.068 332.202 332.385 332.297 332.75 332.297C332.99 332.297 333.207 332.255 333.402 332.172C333.598 332.089 333.763 331.969 333.898 331.812C334.034 331.656 334.13 331.469 334.188 331.25H335.109C335.057 331.604 334.928 331.923 334.723 332.207C334.52 332.488 334.25 332.712 333.914 332.879C333.581 333.043 333.193 333.125 332.75 333.125ZM339.466 327V327.781H336.357V327H339.466ZM337.263 325.562H338.185V331.281C338.185 331.542 338.223 331.737 338.298 331.867C338.377 331.995 338.476 332.081 338.595 332.125C338.718 332.167 338.847 332.187 338.982 332.187C339.084 332.187 339.167 332.182 339.232 332.172C339.297 332.159 339.349 332.148 339.388 332.141L339.576 332.969C339.513 332.992 339.426 333.016 339.314 333.039C339.202 333.065 339.06 333.078 338.888 333.078C338.628 333.078 338.373 333.022 338.123 332.91C337.875 332.798 337.67 332.628 337.505 332.398C337.344 332.169 337.263 331.88 337.263 331.531V325.562ZM347.544 325V333H346.575V326.016H346.528L344.575 327.312V326.328L346.575 325H347.544Z" fill="#AAA7B2"/>
<path fill-rule="evenodd" clip-rule="evenodd" d="M287 324C283.686 324 281 326.686 281 330C281 333.314 283.686 336 287 336C290.314 336 293 333.314 293 330C293 326.686 290.314 324 287 324ZM287 327C285.343 327 284 328.343 284 330C284 331.657 285.343 333 287 333C288.657 333 290 331.657 290 330C290 328.343 288.657 327 287 327Z" fill="#4865FF"/>
<path d="M205.531 325.859V325H211.531V325.859H209.016V333H208.047V325.859H205.531ZM213.973 333L212.145 327H213.114L214.411 331.594H214.473L215.754 327H216.739L218.004 331.578H218.067L219.364 327H220.333L218.504 333H217.598L216.286 328.391H216.192L214.879 333H213.973ZM221.951 333V327H222.873V333H221.951ZM222.42 326C222.24 326 222.085 325.939 221.955 325.816C221.828 325.694 221.764 325.547 221.764 325.375C221.764 325.203 221.828 325.056 221.955 324.934C222.085 324.811 222.24 324.75 222.42 324.75C222.6 324.75 222.753 324.811 222.881 324.934C223.011 325.056 223.076 325.203 223.076 325.375C223.076 325.547 223.011 325.694 222.881 325.816C222.753 325.939 222.6 326 222.42 326ZM227.571 327V327.781H224.462V327H227.571ZM225.368 325.562H226.29V331.281C226.29 331.542 226.328 331.737 226.403 331.867C226.481 331.995 226.58 332.081 226.7 332.125C226.822 332.167 226.951 332.187 227.087 332.187C227.188 332.187 227.272 332.182 227.337 332.172C227.402 332.159 227.454 332.148 227.493 332.141L227.68 332.969C227.618 332.992 227.531 333.016 227.419 333.039C227.307 333.065 227.165 333.078 226.993 333.078C226.733 333.078 226.477 333.022 226.227 332.91C225.98 332.798 225.774 332.628 225.61 332.398C225.449 332.169 225.368 331.88 225.368 331.531V325.562ZM231.967 327V327.781H228.858V327H231.967ZM229.764 325.562H230.686V331.281C230.686 331.542 230.724 331.737 230.799 331.867C230.877 331.995 230.976 332.081 231.096 332.125C231.218 332.167 231.347 332.187 231.483 332.187C231.584 332.187 231.668 332.182 231.733 332.172C231.798 332.159 231.85 332.148 231.889 332.141L232.077 332.969C232.014 332.992 231.927 333.016 231.815 333.039C231.703 333.065 231.561 333.078 231.389 333.078C231.129 333.078 230.873 333.022 230.623 332.91C230.376 332.798 230.17 332.628 230.006 332.398C229.845 332.169 229.764 331.88 229.764 331.531V325.562ZM236.205 333.125C235.627 333.125 235.128 332.997 234.709 332.742C234.292 332.484 233.971 332.125 233.744 331.664C233.52 331.201 233.408 330.661 233.408 330.047C233.408 329.432 233.52 328.891 233.744 328.422C233.971 327.951 234.286 327.583 234.689 327.32C235.096 327.055 235.57 326.922 236.111 326.922C236.424 326.922 236.732 326.974 237.037 327.078C237.342 327.182 237.619 327.352 237.869 327.586C238.119 327.818 238.318 328.125 238.467 328.508C238.615 328.891 238.689 329.362 238.689 329.922V330.312H234.064V329.516H237.752C237.752 329.177 237.684 328.875 237.549 328.609C237.416 328.344 237.226 328.134 236.979 327.98C236.734 327.827 236.445 327.75 236.111 327.75C235.744 327.75 235.426 327.841 235.158 328.023C234.893 328.203 234.688 328.437 234.545 328.727C234.402 329.016 234.33 329.326 234.33 329.656V330.188C234.33 330.641 234.408 331.025 234.564 331.34C234.723 331.652 234.943 331.891 235.225 332.055C235.506 332.216 235.833 332.297 236.205 332.297C236.447 332.297 236.666 332.263 236.861 332.195C237.059 332.125 237.23 332.021 237.373 331.883C237.516 331.742 237.627 331.568 237.705 331.359L238.596 331.609C238.502 331.911 238.344 332.177 238.123 332.406C237.902 332.633 237.628 332.81 237.303 332.937C236.977 333.063 236.611 333.125 236.205 333.125ZM240.492 333V327H241.382V327.906H241.445C241.554 327.609 241.752 327.368 242.039 327.184C242.325 326.999 242.648 326.906 243.007 326.906C243.075 326.906 243.16 326.908 243.261 326.91C243.363 326.913 243.44 326.917 243.492 326.922V327.859C243.461 327.852 243.389 327.84 243.277 327.824C243.168 327.806 243.052 327.797 242.929 327.797C242.638 327.797 242.377 327.858 242.148 327.98C241.921 328.1 241.742 328.267 241.609 328.48C241.479 328.691 241.414 328.932 241.414 329.203V333H240.492Z" fill="#AAA7B2"/>
<path fill-rule="evenodd" clip-rule="evenodd" d="M191 324C187.686 324 185 326.686 185 330C185 333.314 187.686 336 191 336C194.314 336 197 333.314 197 330C197 326.686 194.314 324 191 324ZM191 327C189.343 327 188 328.343 188 330C188 331.657 189.343 333 191 333C192.657 333 194 331.657 194 330C194 328.343 192.657 327 191 327Z" fill="#2748F6"/>
<g clip-path="url(#clip1_102_1458)">
<path d="M83.9688 297H85.125L87.8438 303.641H87.9375L90.6563 297H91.8125V305H90.9062V298.922H90.8281L88.3281 305H87.4531L84.9531 298.922H84.875V305H83.9688V297ZM96.4674 305.125C95.9257 305.125 95.4505 304.996 95.0416 304.738C94.6354 304.48 94.3176 304.12 94.0885 303.656C93.8619 303.193 93.7486 302.651 93.7486 302.031C93.7486 301.406 93.8619 300.861 94.0885 300.395C94.3176 299.928 94.6354 299.566 95.0416 299.309C95.4505 299.051 95.9257 298.922 96.4674 298.922C97.009 298.922 97.483 299.051 97.8893 299.309C98.2981 299.566 98.6158 299.928 98.8424 300.395C99.0715 300.861 99.1861 301.406 99.1861 302.031C99.1861 302.651 99.0715 303.193 98.8424 303.656C98.6158 304.12 98.2981 304.48 97.8893 304.738C97.483 304.996 97.009 305.125 96.4674 305.125ZM96.4674 304.297C96.8788 304.297 97.2174 304.191 97.483 303.98C97.7486 303.77 97.9452 303.492 98.0729 303.148C98.2005 302.805 98.2643 302.432 98.2643 302.031C98.2643 301.63 98.2005 301.257 98.0729 300.91C97.9452 300.564 97.7486 300.284 97.483 300.07C97.2174 299.857 96.8788 299.75 96.4674 299.75C96.0559 299.75 95.7174 299.857 95.4518 300.07C95.1861 300.284 94.9895 300.564 94.8619 300.91C94.7343 301.257 94.6705 301.63 94.6705 302.031C94.6705 302.432 94.7343 302.805 94.8619 303.148C94.9895 303.492 95.1861 303.77 95.4518 303.98C95.7174 304.191 96.0559 304.297 96.4674 304.297ZM101.915 301.391V305H100.993V299H101.884V299.937H101.962C102.103 299.633 102.316 299.388 102.603 299.203C102.889 299.016 103.259 298.922 103.712 298.922C104.118 298.922 104.474 299.005 104.779 299.172C105.083 299.336 105.32 299.586 105.489 299.922C105.659 300.255 105.743 300.677 105.743 301.188V305H104.821V301.25C104.821 300.779 104.699 300.411 104.454 300.148C104.21 299.883 103.874 299.75 103.446 299.75C103.152 299.75 102.889 299.814 102.657 299.941C102.428 300.069 102.247 300.255 102.114 300.5C101.982 300.745 101.915 301.042 101.915 301.391Z" fill="#AAA7B2"/>
<path d="M182.531 297.859V297H188.531V297.859H186.016V305H185.047V297.859H182.531ZM193.266 302.547V299H194.188V305H193.266V303.984H193.204C193.063 304.289 192.844 304.548 192.547 304.762C192.251 304.973 191.876 305.078 191.422 305.078C191.047 305.078 190.714 304.996 190.422 304.832C190.131 304.665 189.902 304.415 189.735 304.082C189.568 303.746 189.485 303.323 189.485 302.812V299H190.407V302.75C190.407 303.187 190.529 303.536 190.774 303.797C191.021 304.057 191.337 304.187 191.719 304.187C191.949 304.187 192.182 304.129 192.419 304.012C192.658 303.895 192.859 303.715 193.02 303.473C193.184 303.23 193.266 302.922 193.266 302.547ZM198.792 305.125C198.214 305.125 197.715 304.997 197.296 304.742C196.879 304.484 196.558 304.125 196.331 303.664C196.107 303.201 195.995 302.661 195.995 302.047C195.995 301.432 196.107 300.891 196.331 300.422C196.558 299.951 196.873 299.583 197.277 299.32C197.683 299.055 198.157 298.922 198.698 298.922C199.011 298.922 199.32 298.974 199.624 299.078C199.929 299.182 200.206 299.352 200.456 299.586C200.706 299.818 200.905 300.125 201.054 300.508C201.202 300.891 201.277 301.362 201.277 301.922V302.312H196.652V301.516H200.339C200.339 301.177 200.271 300.875 200.136 300.609C200.003 300.344 199.813 300.134 199.566 299.98C199.321 299.827 199.032 299.75 198.698 299.75C198.331 299.75 198.014 299.841 197.745 300.023C197.48 300.203 197.275 300.437 197.132 300.727C196.989 301.016 196.917 301.326 196.917 301.656V302.188C196.917 302.641 196.995 303.025 197.152 303.34C197.31 303.652 197.53 303.891 197.812 304.055C198.093 304.216 198.42 304.297 198.792 304.297C199.034 304.297 199.253 304.263 199.448 304.195C199.646 304.125 199.817 304.021 199.96 303.883C200.103 303.742 200.214 303.568 200.292 303.359L201.183 303.609C201.089 303.911 200.932 304.177 200.71 304.406C200.489 304.633 200.215 304.81 199.89 304.937C199.564 305.063 199.198 305.125 198.792 305.125Z" fill="#AAA7B2"/>
<path d="M283.422 305L281.234 297H282.219L283.891 303.516H283.969L285.672 297H286.766L288.469 303.516H288.547L290.219 297H291.203L289.016 305H288.016L286.25 298.625H286.188L284.422 305H283.422ZM294.642 305.125C294.064 305.125 293.565 304.997 293.146 304.742C292.729 304.484 292.408 304.125 292.181 303.664C291.957 303.201 291.845 302.661 291.845 302.047C291.845 301.432 291.957 300.891 292.181 300.422C292.408 299.951 292.723 299.583 293.127 299.32C293.533 299.055 294.007 298.922 294.548 298.922C294.861 298.922 295.17 298.974 295.474 299.078C295.779 299.182 296.056 299.352 296.306 299.586C296.556 299.818 296.755 300.125 296.904 300.508C297.052 300.891 297.127 301.362 297.127 301.922V302.312H292.502V301.516H296.189C296.189 301.177 296.121 300.875 295.986 300.609C295.853 300.344 295.663 300.134 295.416 299.98C295.171 299.827 294.882 299.75 294.548 299.75C294.181 299.75 293.864 299.841 293.595 300.023C293.33 300.203 293.125 300.437 292.982 300.727C292.839 301.016 292.767 301.326 292.767 301.656V302.188C292.767 302.641 292.845 303.025 293.002 303.34C293.16 303.652 293.38 303.891 293.662 304.055C293.943 304.216 294.27 304.297 294.642 304.297C294.884 304.297 295.103 304.263 295.298 304.195C295.496 304.125 295.667 304.021 295.81 303.883C295.953 303.742 296.064 303.568 296.142 303.359L297.033 303.609C296.939 303.911 296.782 304.177 296.56 304.406C296.339 304.633 296.065 304.81 295.74 304.937C295.414 305.063 295.048 305.125 294.642 305.125ZM301.195 305.125C300.695 305.125 300.253 304.999 299.87 304.746C299.487 304.491 299.188 304.132 298.972 303.668C298.756 303.202 298.648 302.651 298.648 302.016C298.648 301.385 298.756 300.839 298.972 300.375C299.188 299.911 299.489 299.553 299.874 299.301C300.26 299.048 300.705 298.922 301.21 298.922C301.601 298.922 301.909 298.987 302.136 299.117C302.365 299.245 302.54 299.391 302.659 299.555C302.782 299.716 302.877 299.849 302.945 299.953H303.023V297H303.945V305H303.054V304.078H302.945C302.877 304.187 302.78 304.326 302.655 304.492C302.53 304.656 302.352 304.803 302.12 304.934C301.889 305.061 301.58 305.125 301.195 305.125ZM301.32 304.297C301.689 304.297 302.002 304.201 302.257 304.008C302.512 303.812 302.706 303.543 302.839 303.199C302.972 302.853 303.038 302.453 303.038 302C303.038 301.552 302.973 301.16 302.843 300.824C302.713 300.486 302.52 300.223 302.265 300.035C302.01 299.845 301.695 299.75 301.32 299.75C300.929 299.75 300.603 299.85 300.343 300.051C300.085 300.249 299.891 300.518 299.761 300.859C299.633 301.198 299.57 301.578 299.57 302C299.57 302.427 299.635 302.815 299.765 303.164C299.898 303.51 300.093 303.786 300.351 303.992C300.611 304.195 300.934 304.297 301.32 304.297Z" fill="#AAA7B2"/>
<path d="M380.531 297.859V297H386.531V297.859H384.016V305H383.047V297.859H380.531ZM389.223 301.391V305H388.301V297H389.223V299.937H389.301C389.442 299.628 389.653 299.382 389.934 299.199C390.218 299.014 390.596 298.922 391.067 298.922C391.476 298.922 391.834 299.004 392.141 299.168C392.449 299.329 392.687 299.578 392.856 299.914C393.028 300.247 393.114 300.672 393.114 301.188V305H392.192V301.25C392.192 300.773 392.068 300.405 391.821 300.145C391.576 299.882 391.236 299.75 390.801 299.75C390.499 299.75 390.228 299.814 389.989 299.941C389.752 300.069 389.564 300.255 389.426 300.5C389.291 300.745 389.223 301.042 389.223 301.391ZM398.982 302.547V299H399.904V305H398.982V303.984H398.919C398.779 304.289 398.56 304.548 398.263 304.762C397.966 304.973 397.591 305.078 397.138 305.078C396.763 305.078 396.43 304.996 396.138 304.832C395.846 304.665 395.617 304.415 395.45 304.082C395.284 303.746 395.2 303.323 395.2 302.812V299H396.122V302.75C396.122 303.187 396.245 303.536 396.489 303.797C396.737 304.057 397.052 304.187 397.435 304.187C397.664 304.187 397.897 304.129 398.134 304.012C398.374 303.895 398.574 303.715 398.736 303.473C398.9 303.23 398.982 302.922 398.982 302.547Z" fill="#AAA7B2"/>
<path d="M479.969 305V297H484.766V297.859H480.938V300.562H484.406V301.422H480.938V305H479.969ZM486.635 305V299H487.526V299.906H487.588C487.698 299.609 487.896 299.368 488.182 299.184C488.469 298.999 488.792 298.906 489.151 298.906C489.219 298.906 489.303 298.908 489.405 298.91C489.506 298.913 489.583 298.917 489.635 298.922V299.859C489.604 299.852 489.532 299.84 489.421 299.824C489.311 299.806 489.195 299.797 489.073 299.797C488.781 299.797 488.521 299.858 488.292 299.98C488.065 300.1 487.885 300.267 487.753 300.48C487.622 300.691 487.557 300.932 487.557 301.203V305H486.635ZM491.128 305V299H492.05V305H491.128ZM491.597 298C491.417 298 491.262 297.939 491.132 297.816C491.004 297.694 490.941 297.547 490.941 297.375C490.941 297.203 491.004 297.056 491.132 296.934C491.262 296.811 491.417 296.75 491.597 296.75C491.777 296.75 491.93 296.811 492.058 296.934C492.188 297.056 492.253 297.203 492.253 297.375C492.253 297.547 492.188 297.694 492.058 297.816C491.93 297.939 491.777 298 491.597 298Z" fill="#AAA7B2"/>
<path d="M583.344 299C583.297 298.604 583.107 298.297 582.773 298.078C582.44 297.859 582.031 297.75 581.547 297.75C581.193 297.75 580.883 297.807 580.617 297.922C580.354 298.036 580.148 298.194 580 298.395C579.854 298.595 579.781 298.823 579.781 299.078C579.781 299.292 579.832 299.475 579.934 299.629C580.038 299.78 580.171 299.906 580.332 300.008C580.493 300.107 580.663 300.189 580.84 300.254C581.017 300.316 581.18 300.367 581.328 300.406L582.141 300.625C582.349 300.68 582.581 300.755 582.836 300.852C583.094 300.948 583.34 301.079 583.574 301.246C583.811 301.41 584.007 301.621 584.16 301.879C584.314 302.137 584.391 302.453 584.391 302.828C584.391 303.26 584.277 303.651 584.051 304C583.827 304.349 583.499 304.626 583.066 304.832C582.637 305.038 582.115 305.141 581.5 305.141C580.927 305.141 580.431 305.048 580.012 304.863C579.595 304.678 579.267 304.421 579.027 304.09C578.79 303.759 578.656 303.375 578.625 302.938H579.625C579.651 303.24 579.753 303.49 579.93 303.687C580.109 303.883 580.336 304.029 580.609 304.125C580.885 304.219 581.182 304.266 581.5 304.266C581.87 304.266 582.202 304.206 582.496 304.086C582.79 303.964 583.023 303.794 583.195 303.578C583.367 303.359 583.453 303.104 583.453 302.812C583.453 302.547 583.379 302.331 583.23 302.164C583.082 301.997 582.887 301.862 582.645 301.758C582.402 301.654 582.141 301.562 581.859 301.484L580.875 301.203C580.25 301.023 579.755 300.767 579.391 300.434C579.026 300.1 578.844 299.664 578.844 299.125C578.844 298.677 578.965 298.286 579.207 297.953C579.452 297.617 579.78 297.357 580.191 297.172C580.605 296.984 581.068 296.891 581.578 296.891C582.094 296.891 582.552 296.983 582.953 297.168C583.354 297.35 583.672 297.6 583.906 297.918C584.143 298.236 584.268 298.596 584.281 299H583.344ZM588.024 305.141C587.644 305.141 587.299 305.069 586.989 304.926C586.679 304.78 586.433 304.57 586.251 304.297C586.068 304.021 585.977 303.687 585.977 303.297C585.977 302.953 586.045 302.674 586.18 302.461C586.316 302.245 586.497 302.076 586.723 301.953C586.95 301.831 587.2 301.74 587.473 301.68C587.749 301.617 588.027 301.568 588.305 301.531C588.67 301.484 588.965 301.449 589.192 301.426C589.421 301.4 589.588 301.357 589.692 301.297C589.799 301.237 589.852 301.133 589.852 300.984V300.953C589.852 300.568 589.747 300.268 589.536 300.055C589.327 299.841 589.011 299.734 588.587 299.734C588.146 299.734 587.801 299.831 587.551 300.023C587.301 300.216 587.126 300.422 587.024 300.641L586.149 300.328C586.305 299.964 586.514 299.68 586.774 299.477C587.037 299.271 587.324 299.128 587.633 299.047C587.946 298.964 588.253 298.922 588.555 298.922C588.748 298.922 588.969 298.945 589.219 298.992C589.472 299.036 589.715 299.129 589.95 299.27C590.187 299.41 590.383 299.622 590.54 299.906C590.696 300.19 590.774 300.57 590.774 301.047V305H589.852V304.187H589.805C589.743 304.318 589.639 304.457 589.493 304.605C589.347 304.754 589.153 304.88 588.911 304.984C588.669 305.089 588.373 305.141 588.024 305.141ZM588.165 304.312C588.529 304.312 588.837 304.241 589.087 304.098C589.339 303.954 589.529 303.77 589.657 303.543C589.787 303.316 589.852 303.078 589.852 302.828V301.984C589.813 302.031 589.727 302.074 589.594 302.113C589.464 302.15 589.313 302.182 589.141 302.211C588.972 302.237 588.807 302.26 588.645 302.281C588.486 302.299 588.357 302.315 588.258 302.328C588.019 302.359 587.795 302.41 587.587 302.48C587.381 302.548 587.214 302.651 587.087 302.789C586.962 302.924 586.899 303.109 586.899 303.344C586.899 303.664 587.018 303.906 587.254 304.07C587.494 304.232 587.797 304.312 588.165 304.312ZM595.466 299V299.781H592.357V299H595.466ZM593.263 297.562H594.185V303.281C594.185 303.542 594.223 303.737 594.298 303.867C594.376 303.995 594.475 304.081 594.595 304.125C594.717 304.167 594.846 304.187 594.982 304.187C595.083 304.187 595.167 304.182 595.232 304.172C595.297 304.159 595.349 304.148 595.388 304.141L595.575 304.969C595.513 304.992 595.426 305.016 595.314 305.039C595.202 305.065 595.06 305.078 594.888 305.078C594.627 305.078 594.372 305.022 594.122 304.91C593.875 304.798 593.669 304.628 593.505 304.398C593.344 304.169 593.263 303.88 593.263 303.531V297.562Z" fill="#AAA7B2"/>
<path d="M682.344 299C682.297 298.604 682.107 298.297 681.773 298.078C681.44 297.859 681.031 297.75 680.547 297.75C680.193 297.75 679.883 297.807 679.617 297.922C679.354 298.036 679.148 298.194 679 298.395C678.854 298.595 678.781 298.823 678.781 299.078C678.781 299.292 678.832 299.475 678.934 299.629C679.038 299.78 679.171 299.906 679.332 300.008C679.493 300.107 679.663 300.189 679.84 300.254C680.017 300.316 680.18 300.367 680.328 300.406L681.141 300.625C681.349 300.68 681.581 300.755 681.836 300.852C682.094 300.948 682.34 301.079 682.574 301.246C682.811 301.41 683.007 301.621 683.16 301.879C683.314 302.137 683.391 302.453 683.391 302.828C683.391 303.26 683.277 303.651 683.051 304C682.827 304.349 682.499 304.626 682.066 304.832C681.637 305.038 681.115 305.141 680.5 305.141C679.927 305.141 679.431 305.048 679.012 304.863C678.595 304.678 678.267 304.421 678.027 304.09C677.79 303.759 677.656 303.375 677.625 302.938H678.625C678.651 303.24 678.753 303.49 678.93 303.687C679.109 303.883 679.336 304.029 679.609 304.125C679.885 304.219 680.182 304.266 680.5 304.266C680.87 304.266 681.202 304.206 681.496 304.086C681.79 303.964 682.023 303.794 682.195 303.578C682.367 303.359 682.453 303.104 682.453 302.812C682.453 302.547 682.379 302.331 682.23 302.164C682.082 301.997 681.887 301.862 681.645 301.758C681.402 301.654 681.141 301.562 680.859 301.484L679.875 301.203C679.25 301.023 678.755 300.767 678.391 300.434C678.026 300.1 677.844 299.664 677.844 299.125C677.844 298.677 677.965 298.286 678.207 297.953C678.452 297.617 678.78 297.357 679.191 297.172C679.605 296.984 680.068 296.891 680.578 296.891C681.094 296.891 681.552 296.983 681.953 297.168C682.354 297.35 682.672 297.6 682.906 297.918C683.143 298.236 683.268 298.596 683.281 299H682.344ZM689.04 302.547V299H689.962V305H689.04V303.984H688.977C688.837 304.289 688.618 304.548 688.321 304.762C688.024 304.973 687.649 305.078 687.196 305.078C686.821 305.078 686.488 304.996 686.196 304.832C685.904 304.665 685.675 304.415 685.508 304.082C685.342 303.746 685.258 303.323 685.258 302.812V299H686.18V302.75C686.18 303.187 686.303 303.536 686.547 303.797C686.795 304.057 687.11 304.187 687.493 304.187C687.722 304.187 687.955 304.129 688.192 304.012C688.432 303.895 688.632 303.715 688.794 303.473C688.958 303.23 689.04 302.922 689.04 302.547ZM692.972 301.391V305H692.05V299H692.941V299.937H693.019C693.159 299.633 693.373 299.388 693.659 299.203C693.946 299.016 694.316 298.922 694.769 298.922C695.175 298.922 695.53 299.005 695.835 299.172C696.14 299.336 696.377 299.586 696.546 299.922C696.715 300.255 696.8 300.677 696.8 301.188V305H695.878V301.25C695.878 300.779 695.756 300.411 695.511 300.148C695.266 299.883 694.93 299.75 694.503 299.75C694.209 299.75 693.946 299.814 693.714 299.941C693.485 300.069 693.304 300.255 693.171 300.5C693.038 300.745 692.972 301.042 692.972 301.391Z" fill="#AAA7B2"/>
</g>
<g clip-path="url(#clip2_102_1458)">
<path d="M31.4375 283.109C30.849 283.109 30.3477 282.949 29.9336 282.629C29.5195 282.306 29.2031 281.839 28.9844 281.227C28.7656 280.612 28.6563 279.87 28.6563 279C28.6563 278.135 28.7656 277.397 28.9844 276.785C29.2057 276.171 29.5234 275.702 29.9375 275.379C30.3542 275.053 30.8542 274.891 31.4375 274.891C32.0208 274.891 32.5195 275.053 32.9336 275.379C33.3503 275.702 33.668 276.171 33.8867 276.785C34.1081 277.397 34.2188 278.135 34.2188 279C34.2188 279.87 34.1094 280.612 33.8906 281.227C33.6719 281.839 33.3555 282.306 32.9414 282.629C32.5273 282.949 32.026 283.109 31.4375 283.109ZM31.4375 282.25C32.0208 282.25 32.474 281.969 32.7969 281.406C33.1198 280.844 33.2813 280.042 33.2813 279C33.2813 278.307 33.207 277.717 33.0586 277.23C32.9128 276.743 32.7018 276.372 32.4258 276.117C32.1523 275.862 31.8229 275.734 31.4375 275.734C30.8594 275.734 30.4076 276.02 30.082 276.59C29.7565 277.158 29.5938 277.961 29.5938 279C29.5938 279.693 29.6667 280.281 29.8125 280.766C29.9583 281.25 30.168 281.618 30.4414 281.871C30.7174 282.124 31.0495 282.25 31.4375 282.25Z" fill="#AAA7B2"/>
<path d="M31.6406 230V238H30.6719V231.016H30.625L28.6719 232.312V231.328L30.6719 230H31.6406ZM36.9508 238.109C36.3622 238.109 35.8609 237.949 35.4469 237.629C35.0328 237.306 34.7164 236.839 34.4977 236.227C34.2789 235.612 34.1695 234.87 34.1695 234C34.1695 233.135 34.2789 232.397 34.4977 231.785C34.719 231.171 35.0367 230.702 35.4508 230.379C35.8674 230.053 36.3674 229.891 36.9508 229.891C37.5341 229.891 38.0328 230.053 38.4469 230.379C38.8635 230.702 39.1813 231.171 39.4 231.785C39.6214 232.397 39.732 233.135 39.732 234C39.732 234.87 39.6227 235.612 39.4039 236.227C39.1852 236.839 38.8688 237.306 38.4547 237.629C38.0406 237.949 37.5393 238.109 36.9508 238.109ZM36.9508 237.25C37.5341 237.25 37.9872 236.969 38.3102 236.406C38.6331 235.844 38.7945 235.042 38.7945 234C38.7945 233.307 38.7203 232.717 38.5719 232.23C38.426 231.743 38.2151 231.372 37.9391 231.117C37.6656 230.862 37.3362 230.734 36.9508 230.734C36.3727 230.734 35.9208 231.02 35.5953 231.59C35.2698 232.158 35.107 232.961 35.107 234C35.107 234.693 35.1799 235.281 35.3258 235.766C35.4716 236.25 35.6813 236.618 35.9547 236.871C36.2307 237.124 36.5628 237.25 36.9508 237.25ZM44.2258 238.109C43.6372 238.109 43.1359 237.949 42.7219 237.629C42.3078 237.306 41.9914 236.839 41.7727 236.227C41.5539 235.612 41.4445 234.87 41.4445 234C41.4445 233.135 41.5539 232.397 41.7727 231.785C41.994 231.171 42.3117 230.702 42.7258 230.379C43.1424 230.053 43.6424 229.891 44.2258 229.891C44.8091 229.891 45.3078 230.053 45.7219 230.379C46.1385 230.702 46.4563 231.171 46.675 231.785C46.8964 232.397 47.007 233.135 47.007 234C47.007 234.87 46.8977 235.612 46.6789 236.227C46.4602 236.839 46.1438 237.306 45.7297 237.629C45.3156 237.949 44.8143 238.109 44.2258 238.109ZM44.2258 237.25C44.8091 237.25 45.2622 236.969 45.5852 236.406C45.9081 235.844 46.0695 235.042 46.0695 234C46.0695 233.307 45.9953 232.717 45.8469 232.23C45.701 231.743 45.4901 231.372 45.2141 231.117C44.9406 230.862 44.6112 230.734 44.2258 230.734C43.6477 230.734 43.1958 231.02 42.8703 231.59C42.5448 232.158 42.382 232.961 42.382 234C42.382 234.693 42.4549 235.281 42.6008 235.766C42.7466 236.25 42.9563 236.618 43.2297 236.871C43.5057 237.124 43.8378 237.25 44.2258 237.25Z" fill="#AAA7B2"/>
<path d="M28.8281 193V192.297L31.4687 189.406C31.7786 189.068 32.0339 188.773 32.2344 188.523C32.4349 188.271 32.5833 188.034 32.6797 187.812C32.7786 187.589 32.8281 187.354 32.8281 187.109C32.8281 186.828 32.7604 186.585 32.625 186.379C32.4922 186.173 32.3099 186.014 32.0781 185.902C31.8464 185.79 31.5859 185.734 31.2969 185.734C30.9896 185.734 30.7214 185.798 30.4922 185.926C30.2656 186.051 30.0898 186.227 29.9648 186.453C29.8424 186.68 29.7813 186.945 29.7813 187.25H28.8594C28.8594 186.781 28.9674 186.37 29.1836 186.016C29.3997 185.661 29.694 185.385 30.0664 185.187C30.4414 184.99 30.862 184.891 31.3281 184.891C31.7969 184.891 32.2122 184.99 32.5742 185.187C32.9362 185.385 33.2201 185.652 33.4258 185.988C33.6315 186.324 33.7344 186.698 33.7344 187.109C33.7344 187.404 33.681 187.691 33.5742 187.973C33.4701 188.251 33.2878 188.562 33.0273 188.906C32.7695 189.247 32.4115 189.664 31.9531 190.156L30.1563 192.078V192.141H33.875V193H28.8281ZM38.4977 193.109C37.9091 193.109 37.4078 192.949 36.9938 192.629C36.5797 192.306 36.2633 191.839 36.0445 191.227C35.8258 190.612 35.7164 189.87 35.7164 189C35.7164 188.135 35.8258 187.397 36.0445 186.785C36.2659 186.171 36.5836 185.702 36.9977 185.379C37.4143 185.053 37.9143 184.891 38.4977 184.891C39.081 184.891 39.5797 185.053 39.9938 185.379C40.4104 185.702 40.7281 186.171 40.9469 186.785C41.1682 187.397 41.2789 188.135 41.2789 189C41.2789 189.87 41.1695 190.612 40.9508 191.227C40.732 191.839 40.4156 192.306 40.0016 192.629C39.5875 192.949 39.0862 193.109 38.4977 193.109ZM38.4977 192.25C39.081 192.25 39.5341 191.969 39.857 191.406C40.1799 190.844 40.3414 190.042 40.3414 189C40.3414 188.307 40.2672 187.717 40.1188 187.23C39.9729 186.743 39.762 186.372 39.4859 186.117C39.2125 185.862 38.8831 185.734 38.4977 185.734C37.9195 185.734 37.4677 186.02 37.1422 186.59C36.8167 187.158 36.6539 187.961 36.6539 189C36.6539 189.693 36.7268 190.281 36.8727 190.766C37.0185 191.25 37.2281 191.618 37.5016 191.871C37.7776 192.124 38.1096 192.25 38.4977 192.25ZM45.7727 193.109C45.1841 193.109 44.6828 192.949 44.2688 192.629C43.8547 192.306 43.5383 191.839 43.3195 191.227C43.1008 190.612 42.9914 189.87 42.9914 189C42.9914 188.135 43.1008 187.397 43.3195 186.785C43.5409 186.171 43.8586 185.702 44.2727 185.379C44.6893 185.053 45.1893 184.891 45.7727 184.891C46.356 184.891 46.8547 185.053 47.2688 185.379C47.6854 185.702 48.0031 186.171 48.2219 186.785C48.4432 187.397 48.5539 188.135 48.5539 189C48.5539 189.87 48.4445 190.612 48.2258 191.227C48.007 191.839 47.6906 192.306 47.2766 192.629C46.8625 192.949 46.3612 193.109 45.7727 193.109ZM45.7727 192.25C46.356 192.25 46.8091 191.969 47.132 191.406C47.4549 190.844 47.6164 190.042 47.6164 189C47.6164 188.307 47.5422 187.717 47.3938 187.23C47.2479 186.743 47.037 186.372 46.7609 186.117C46.4875 185.862 46.1581 185.734 45.7727 185.734C45.1945 185.734 44.7427 186.02 44.4172 186.59C44.0917 187.158 43.9289 187.961 43.9289 189C43.9289 189.693 44.0018 190.281 44.1477 190.766C44.2935 191.25 44.5031 191.618 44.7766 191.871C45.0526 192.124 45.3846 192.25 45.7727 192.25Z" fill="#AAA7B2"/>
<path d="M31.5313 148.109C31.0156 148.109 30.556 148.021 30.1523 147.844C29.7513 147.667 29.4323 147.421 29.1953 147.105C28.9609 146.788 28.8333 146.419 28.8125 146H29.7969C29.8177 146.258 29.9063 146.48 30.0625 146.668C30.2188 146.853 30.4232 146.996 30.6758 147.098C30.9284 147.199 31.2083 147.25 31.5156 147.25C31.8594 147.25 32.1641 147.19 32.4297 147.07C32.6953 146.951 32.9036 146.784 33.0547 146.57C33.2057 146.357 33.2813 146.109 33.2813 145.828C33.2813 145.534 33.2083 145.275 33.0625 145.051C32.9167 144.824 32.7031 144.647 32.4219 144.52C32.1406 144.392 31.7969 144.328 31.3906 144.328H30.75V143.469H31.3906C31.7083 143.469 31.987 143.411 32.2266 143.297C32.4688 143.182 32.6576 143.021 32.793 142.812C32.931 142.604 33 142.359 33 142.078C33 141.807 32.9401 141.572 32.8203 141.371C32.7005 141.171 32.5313 141.014 32.3125 140.902C32.0964 140.79 31.8411 140.734 31.5469 140.734C31.2708 140.734 31.0104 140.785 30.7656 140.887C30.5234 140.986 30.3255 141.13 30.1719 141.32C30.0182 141.508 29.9349 141.734 29.9219 142H28.9844C29 141.581 29.1263 141.214 29.3633 140.898C29.6003 140.581 29.9102 140.333 30.293 140.156C30.6784 139.979 31.1016 139.891 31.5625 139.891C32.0573 139.891 32.4818 139.991 32.8359 140.191C33.1901 140.389 33.4622 140.651 33.6523 140.977C33.8424 141.302 33.9375 141.654 33.9375 142.031C33.9375 142.482 33.819 142.866 33.582 143.184C33.3477 143.501 33.0286 143.721 32.625 143.844V143.906C33.1302 143.99 33.5247 144.204 33.8086 144.551C34.0924 144.895 34.2344 145.32 34.2344 145.828C34.2344 146.263 34.1159 146.654 33.8789 147C33.6445 147.344 33.3242 147.615 32.918 147.812C32.5117 148.01 32.0495 148.109 31.5313 148.109ZM38.8414 148.109C38.2529 148.109 37.7516 147.949 37.3375 147.629C36.9234 147.306 36.607 146.839 36.3883 146.227C36.1695 145.612 36.0602 144.87 36.0602 144C36.0602 143.135 36.1695 142.397 36.3883 141.785C36.6096 141.171 36.9273 140.702 37.3414 140.379C37.7581 140.053 38.2581 139.891 38.8414 139.891C39.4247 139.891 39.9234 140.053 40.3375 140.379C40.7542 140.702 41.0719 141.171 41.2906 141.785C41.512 142.397 41.6227 143.135 41.6227 144C41.6227 144.87 41.5133 145.612 41.2945 146.227C41.0758 146.839 40.7594 147.306 40.3453 147.629C39.9313 147.949 39.4299 148.109 38.8414 148.109ZM38.8414 147.25C39.4247 147.25 39.8779 146.969 40.2008 146.406C40.5237 145.844 40.6852 145.042 40.6852 144C40.6852 143.307 40.6109 142.717 40.4625 142.23C40.3167 141.743 40.1057 141.372 39.8297 141.117C39.5563 140.862 39.2268 140.734 38.8414 140.734C38.2633 140.734 37.8115 141.02 37.4859 141.59C37.1604 142.158 36.9977 142.961 36.9977 144C36.9977 144.693 37.0706 145.281 37.2164 145.766C37.3622 146.25 37.5719 146.618 37.8453 146.871C38.1214 147.124 38.4534 147.25 38.8414 147.25ZM46.1164 148.109C45.5279 148.109 45.0266 147.949 44.6125 147.629C44.1984 147.306 43.882 146.839 43.6633 146.227C43.4445 145.612 43.3352 144.87 43.3352 144C43.3352 143.135 43.4445 142.397 43.6633 141.785C43.8846 141.171 44.2023 140.702 44.6164 140.379C45.0331 140.053 45.5331 139.891 46.1164 139.891C46.6997 139.891 47.1984 140.053 47.6125 140.379C48.0292 140.702 48.3469 141.171 48.5656 141.785C48.787 142.397 48.8977 143.135 48.8977 144C48.8977 144.87 48.7883 145.612 48.5695 146.227C48.3508 146.839 48.0344 147.306 47.6203 147.629C47.2063 147.949 46.7049 148.109 46.1164 148.109ZM46.1164 147.25C46.6997 147.25 47.1529 146.969 47.4758 146.406C47.7987 145.844 47.9602 145.042 47.9602 144C47.9602 143.307 47.8859 142.717 47.7375 142.23C47.5917 141.743 47.3807 141.372 47.1047 141.117C46.8313 140.862 46.5018 140.734 46.1164 140.734C45.5383 140.734 45.0865 141.02 44.7609 141.59C44.4354 142.158 44.2727 142.961 44.2727 144C44.2727 144.693 44.3456 145.281 44.4914 145.766C44.6372 146.25 44.8469 146.618 45.1203 146.871C45.3964 147.124 45.7284 147.25 46.1164 147.25Z" fill="#AAA7B2"/>
<path d="M28.6406 101.359V100.562L32.1562 95H32.7344V96.2344H32.3438L29.6875 100.437V100.5H34.4219V101.359H28.6406ZM32.4063 103V101.117V100.746V95H33.3281V103H32.4063ZM38.8951 103.109C38.3066 103.109 37.8053 102.949 37.3912 102.629C36.9771 102.306 36.6607 101.839 36.442 101.227C36.2232 100.612 36.1139 99.8698 36.1139 99C36.1139 98.1354 36.2232 97.3971 36.442 96.7852C36.6633 96.1706 36.9811 95.7018 37.3951 95.3789C37.8118 95.0534 38.3118 94.8906 38.8951 94.8906C39.4785 94.8906 39.9771 95.0534 40.3912 95.3789C40.8079 95.7018 41.1256 96.1706 41.3443 96.7852C41.5657 97.3971 41.6764 98.1354 41.6764 99C41.6764 99.8698 41.567 100.612 41.3482 101.227C41.1295 101.839 40.8131 102.306 40.399 102.629C39.985 102.949 39.4837 103.109 38.8951 103.109ZM38.8951 102.25C39.4785 102.25 39.9316 101.969 40.2545 101.406C40.5774 100.844 40.7389 100.042 40.7389 99C40.7389 98.3073 40.6646 97.7174 40.5162 97.2305C40.3704 96.7435 40.1594 96.3724 39.8834 96.1172C39.61 95.862 39.2805 95.7344 38.8951 95.7344C38.317 95.7344 37.8652 96.0195 37.5396 96.5898C37.2141 97.1576 37.0514 97.9609 37.0514 99C37.0514 99.6927 37.1243 100.281 37.2701 100.766C37.416 101.25 37.6256 101.618 37.899 101.871C38.1751 102.124 38.5071 102.25 38.8951 102.25ZM46.1701 103.109C45.5816 103.109 45.0803 102.949 44.6662 102.629C44.2521 102.306 43.9357 101.839 43.717 101.227C43.4982 100.612 43.3889 99.8698 43.3889 99C43.3889 98.1354 43.4982 97.3971 43.717 96.7852C43.9383 96.1706 44.2561 95.7018 44.6701 95.3789C45.0868 95.0534 45.5868 94.8906 46.1701 94.8906C46.7535 94.8906 47.2521 95.0534 47.6662 95.3789C48.0829 95.7018 48.4006 96.1706 48.6193 96.7852C48.8407 97.3971 48.9514 98.1354 48.9514 99C48.9514 99.8698 48.842 100.612 48.6232 101.227C48.4045 101.839 48.0881 102.306 47.674 102.629C47.26 102.949 46.7587 103.109 46.1701 103.109ZM46.1701 102.25C46.7535 102.25 47.2066 101.969 47.5295 101.406C47.8524 100.844 48.0139 100.042 48.0139 99C48.0139 98.3073 47.9396 97.7174 47.7912 97.2305C47.6454 96.7435 47.4344 96.3724 47.1584 96.1172C46.885 95.862 46.5555 95.7344 46.1701 95.7344C45.592 95.7344 45.1402 96.0195 44.8146 96.5898C44.4891 97.1576 44.3264 97.9609 44.3264 99C44.3264 99.6927 44.3993 100.281 44.5451 100.766C44.691 101.25 44.9006 101.618 45.174 101.871C45.4501 102.124 45.7821 102.25 46.1701 102.25Z" fill="#AAA7B2"/>
</g>
<path fill-rule="evenodd" clip-rule="evenodd" d="M729 36C729 34.6193 730.119 33.5 731.5 33.5C732.881 33.5 734 34.6193 734 36C734 37.3807 732.881 38.5 731.5 38.5C730.119 38.5 729 37.3807 729 36ZM737.5 36C737.5 34.6193 738.619 33.5 740 33.5C741.381 33.5 742.5 34.6193 742.5 36C742.5 37.3807 741.381 38.5 740 38.5C738.619 38.5 737.5 37.3807 737.5 36ZM748.5 33.5C747.119 33.5 746 34.6193 746 36C746 37.3807 747.119 38.5 748.5 38.5C749.881 38.5 751 37.3807 751 36C751 34.6193 749.881 33.5 748.5 33.5Z" fill="#605F76"/>
<path d="M357.148 32.3636H359.727L363.182 40.7955H363.318L366.773 32.3636H369.352V44H367.33V36.0057H367.222L364.006 43.9659H362.494L359.278 35.9886H359.17V44H357.148V32.3636ZM375.364 44.1705C374.511 44.1705 373.773 43.983 373.148 43.608C372.523 43.233 372.038 42.7083 371.693 42.0341C371.352 41.3598 371.182 40.572 371.182 39.6705C371.182 38.7689 371.352 37.9792 371.693 37.3011C372.038 36.6231 372.523 36.0966 373.148 35.7216C373.773 35.3466 374.511 35.1591 375.364 35.1591C376.216 35.1591 376.955 35.3466 377.58 35.7216C378.205 36.0966 378.688 36.6231 379.028 37.3011C379.373 37.9792 379.545 38.7689 379.545 39.6705C379.545 40.572 379.373 41.3598 379.028 42.0341C378.688 42.7083 378.205 43.233 377.58 43.608C376.955 43.983 376.216 44.1705 375.364 44.1705ZM375.375 42.5227C375.837 42.5227 376.223 42.3958 376.534 42.142C376.845 41.8845 377.076 41.5398 377.227 41.108C377.383 40.6761 377.46 40.1951 377.46 39.6648C377.46 39.1307 377.383 38.6477 377.227 38.2159C377.076 37.7803 376.845 37.4337 376.534 37.1761C376.223 36.9186 375.837 36.7898 375.375 36.7898C374.902 36.7898 374.508 36.9186 374.193 37.1761C373.883 37.4337 373.65 37.7803 373.494 38.2159C373.343 38.6477 373.267 39.1307 373.267 39.6648C373.267 40.1951 373.343 40.6761 373.494 41.108C373.65 41.5398 373.883 41.8845 374.193 42.142C374.508 42.3958 374.902 42.5227 375.375 42.5227ZM383.348 38.8864V44H381.291V35.2727H383.257V36.7557H383.359C383.56 36.267 383.88 35.8788 384.32 35.5909C384.763 35.303 385.31 35.1591 385.962 35.1591C386.564 35.1591 387.089 35.2879 387.536 35.5455C387.986 35.803 388.335 36.1761 388.581 36.6648C388.831 37.1534 388.954 37.7462 388.95 38.4432V44H386.893V38.7614C386.893 38.178 386.742 37.7216 386.439 37.392C386.14 37.0625 385.725 36.8977 385.195 36.8977C384.835 36.8977 384.515 36.9773 384.234 37.1364C383.958 37.2917 383.74 37.517 383.581 37.8125C383.426 38.108 383.348 38.4659 383.348 38.8864ZM395.399 35.2727V36.8636H390.382V35.2727H395.399ZM391.621 33.1818H393.678V41.375C393.678 41.6515 393.719 41.8636 393.803 42.0114C393.89 42.1553 394.003 42.2538 394.143 42.3068C394.284 42.3598 394.439 42.3864 394.609 42.3864C394.738 42.3864 394.856 42.3769 394.962 42.358C395.071 42.339 395.155 42.322 395.212 42.3068L395.558 43.9148C395.448 43.9527 395.291 43.9943 395.087 44.0398C394.886 44.0852 394.64 44.1117 394.348 44.1193C393.833 44.1345 393.369 44.0568 392.956 43.8864C392.543 43.7121 392.215 43.4432 391.973 43.0795C391.734 42.7159 391.617 42.2614 391.621 41.7159V33.1818ZM399.364 38.8864V44H397.307V32.3636H399.318V36.7557H399.42C399.625 36.2633 399.941 35.875 400.369 35.5909C400.801 35.303 401.35 35.1591 402.017 35.1591C402.623 35.1591 403.152 35.286 403.602 35.5398C404.053 35.7936 404.402 36.1648 404.648 36.6534C404.898 37.142 405.023 37.7386 405.023 38.4432V44H402.966V38.7614C402.966 38.1742 402.814 37.7178 402.511 37.392C402.212 37.0625 401.792 36.8977 401.25 36.8977C400.886 36.8977 400.561 36.9773 400.273 37.1364C399.989 37.2917 399.765 37.517 399.602 37.8125C399.443 38.108 399.364 38.4659 399.364 38.8864Z" fill="#AAA7B2"/>
<path d="M421.524 32.3636H423.905L426.751 37.5114H426.865L429.712 32.3636H432.092L427.859 39.6591V44H425.757V39.6591L421.524 32.3636ZM435.733 44.1705C434.858 44.1705 434.102 43.9886 433.466 43.625C432.833 43.2576 432.347 42.7386 432.006 42.0682C431.665 41.3939 431.494 40.6004 431.494 39.6875C431.494 38.7898 431.665 38.0019 432.006 37.3239C432.35 36.642 432.831 36.1117 433.449 35.733C434.066 35.3504 434.792 35.1591 435.625 35.1591C436.163 35.1591 436.67 35.2462 437.148 35.4205C437.629 35.5909 438.053 35.8561 438.42 36.2159C438.792 36.5758 439.083 37.0341 439.295 37.5909C439.508 38.1439 439.614 38.803 439.614 39.5682V40.1989H432.46V38.8125H437.642C437.638 38.4186 437.553 38.0682 437.386 37.7614C437.22 37.4508 436.987 37.2064 436.688 37.0284C436.392 36.8504 436.047 36.7614 435.653 36.7614C435.233 36.7614 434.864 36.8636 434.545 37.0682C434.227 37.2689 433.979 37.5341 433.801 37.8636C433.627 38.1894 433.538 38.5473 433.534 38.9375V40.1477C433.534 40.6553 433.627 41.0909 433.812 41.4545C433.998 41.8144 434.258 42.0909 434.591 42.2841C434.924 42.4735 435.314 42.5682 435.761 42.5682C436.061 42.5682 436.331 42.5265 436.574 42.4432C436.816 42.3561 437.027 42.2292 437.205 42.0625C437.383 41.8958 437.517 41.6894 437.608 41.4432L439.528 41.6591C439.407 42.1667 439.176 42.6098 438.835 42.9886C438.498 43.3636 438.066 43.6553 437.54 43.8636C437.013 44.0682 436.411 44.1705 435.733 44.1705ZM443.865 44.1761C443.312 44.1761 442.814 44.0777 442.371 43.8807C441.931 43.6799 441.583 43.3845 441.325 42.9943C441.071 42.6042 440.945 42.1231 440.945 41.5511C440.945 41.0587 441.036 40.6515 441.217 40.3295C441.399 40.0076 441.647 39.75 441.962 39.5568C442.276 39.3636 442.63 39.2178 443.024 39.1193C443.422 39.017 443.833 38.9432 444.257 38.8977C444.768 38.8447 445.183 38.7973 445.501 38.7557C445.82 38.7102 446.051 38.642 446.195 38.5511C446.342 38.4564 446.416 38.3106 446.416 38.1136V38.0795C446.416 37.6515 446.289 37.3201 446.036 37.0852C445.782 36.8504 445.416 36.733 444.939 36.733C444.435 36.733 444.036 36.8428 443.74 37.0625C443.448 37.2822 443.251 37.5417 443.149 37.8409L441.229 37.5682C441.38 37.0379 441.63 36.5947 441.979 36.2386C442.327 35.8788 442.753 35.6098 443.257 35.4318C443.761 35.25 444.318 35.1591 444.928 35.1591C445.348 35.1591 445.767 35.2083 446.183 35.3068C446.6 35.4053 446.981 35.5682 447.325 35.7955C447.67 36.0189 447.946 36.3239 448.155 36.7102C448.367 37.0966 448.473 37.5795 448.473 38.1591V44H446.496V42.8011H446.428C446.303 43.0436 446.126 43.2708 445.899 43.483C445.676 43.6913 445.393 43.8598 445.053 43.9886C444.715 44.1136 444.32 44.1761 443.865 44.1761ZM444.399 42.6648C444.812 42.6648 445.17 42.5833 445.473 42.4205C445.776 42.2538 446.009 42.0341 446.172 41.7614C446.339 41.4886 446.422 41.1913 446.422 40.8693V39.8409C446.357 39.8939 446.248 39.9432 446.092 39.9886C445.941 40.0341 445.77 40.0739 445.581 40.108C445.392 40.142 445.204 40.1723 445.018 40.1989C444.833 40.2254 444.672 40.2481 444.536 40.267C444.229 40.3087 443.954 40.3769 443.712 40.4716C443.469 40.5663 443.278 40.6989 443.138 40.8693C442.998 41.036 442.928 41.2519 442.928 41.517C442.928 41.8958 443.066 42.1818 443.342 42.375C443.619 42.5682 443.971 42.6648 444.399 42.6648ZM450.541 44V35.2727H452.536V36.7273H452.626C452.786 36.2235 453.058 35.8352 453.445 35.5625C453.835 35.286 454.28 35.1477 454.78 35.1477C454.893 35.1477 455.02 35.1534 455.161 35.1648C455.304 35.1723 455.424 35.1856 455.518 35.2045V37.0966C455.431 37.0663 455.293 37.0398 455.104 37.017C454.918 36.9905 454.738 36.9773 454.564 36.9773C454.189 36.9773 453.852 37.0587 453.553 37.2216C453.257 37.3807 453.024 37.6023 452.854 37.8864C452.683 38.1705 452.598 38.4981 452.598 38.8693V44H450.541Z" fill="#AAA7B2"/>
<g clip-path="url(#clip3_102_1458)">
<path fill-rule="evenodd" clip-rule="evenodd" d="M256 38C256 28.0589 264.059 20 274 20H319C328.941 20 337 28.0589 337 38V38C337 47.9411 328.941 56 319 56H274C264.059 56 256 47.9411 256 38V38Z" fill="#20202C"/>
<path fill-rule="evenodd" clip-rule="evenodd" d="M260 38C260 28.0589 268.059 20 278 20H315C324.941 20 333 28.0589 333 38V38C333 47.9411 324.941 56 315 56H278C268.059 56 260 47.9411 260 38V38Z" fill="#696EFF"/>
<path d="M278.597 44L275.312 32.3636H277.58L279.676 40.9148H279.784L282.023 32.3636H284.085L286.33 40.9205H286.432L288.528 32.3636H290.795L287.511 44H285.432L283.102 35.8352H283.011L280.676 44H278.597ZM295.139 44.1705C294.264 44.1705 293.509 43.9886 292.872 43.625C292.24 43.2576 291.753 42.7386 291.412 42.0682C291.071 41.3939 290.901 40.6004 290.901 39.6875C290.901 38.7898 291.071 38.0019 291.412 37.3239C291.757 36.642 292.238 36.1117 292.855 35.733C293.473 35.3504 294.198 35.1591 295.031 35.1591C295.569 35.1591 296.077 35.2462 296.554 35.4205C297.035 35.5909 297.459 35.8561 297.827 36.2159C298.198 36.5758 298.49 37.0341 298.702 37.5909C298.914 38.1439 299.02 38.803 299.02 39.5682V40.1989H291.866V38.8125H297.048C297.045 38.4186 296.959 38.0682 296.793 37.7614C296.626 37.4508 296.393 37.2064 296.094 37.0284C295.798 36.8504 295.454 36.7614 295.06 36.7614C294.639 36.7614 294.27 36.8636 293.952 37.0682C293.634 37.2689 293.385 37.5341 293.207 37.8636C293.033 38.1894 292.944 38.5473 292.94 38.9375V40.1477C292.94 40.6553 293.033 41.0909 293.219 41.4545C293.404 41.8144 293.664 42.0909 293.997 42.2841C294.33 42.4735 294.721 42.5682 295.168 42.5682C295.467 42.5682 295.738 42.5265 295.98 42.4432C296.223 42.3561 296.433 42.2292 296.611 42.0625C296.789 41.8958 296.923 41.6894 297.014 41.4432L298.935 41.6591C298.813 42.1667 298.582 42.6098 298.241 42.9886C297.904 43.3636 297.473 43.6553 296.946 43.8636C296.42 44.0682 295.817 44.1705 295.139 44.1705ZM304.624 44.1705C303.749 44.1705 302.993 43.9886 302.357 43.625C301.724 43.2576 301.237 42.7386 300.896 42.0682C300.555 41.3939 300.385 40.6004 300.385 39.6875C300.385 38.7898 300.555 38.0019 300.896 37.3239C301.241 36.642 301.722 36.1117 302.339 35.733C302.957 35.3504 303.682 35.1591 304.516 35.1591C305.054 35.1591 305.561 35.2462 306.038 35.4205C306.519 35.5909 306.944 35.8561 307.311 36.2159C307.682 36.5758 307.974 37.0341 308.186 37.5909C308.398 38.1439 308.504 38.803 308.504 39.5682V40.1989H301.351V38.8125H306.533C306.529 38.4186 306.444 38.0682 306.277 37.7614C306.11 37.4508 305.877 37.2064 305.578 37.0284C305.283 36.8504 304.938 36.7614 304.544 36.7614C304.124 36.7614 303.754 36.8636 303.436 37.0682C303.118 37.2689 302.87 37.5341 302.692 37.8636C302.518 38.1894 302.429 38.5473 302.425 38.9375V40.1477C302.425 40.6553 302.518 41.0909 302.703 41.4545C302.889 41.8144 303.148 42.0909 303.482 42.2841C303.815 42.4735 304.205 42.5682 304.652 42.5682C304.951 42.5682 305.222 42.5265 305.464 42.4432C305.707 42.3561 305.917 42.2292 306.095 42.0625C306.273 41.8958 306.408 41.6894 306.499 41.4432L308.419 41.6591C308.298 42.1667 308.067 42.6098 307.726 42.9886C307.389 43.3636 306.957 43.6553 306.43 43.8636C305.904 44.0682 305.302 44.1705 304.624 44.1705ZM312.119 41.2614L312.114 38.7784H312.443L315.58 35.2727H317.983L314.125 39.5682H313.699L312.119 41.2614ZM310.244 44V32.3636H312.301V44H310.244ZM315.722 44L312.881 40.0284L314.267 38.5795L318.182 44H315.722Z" fill="white"/>
</g>
<path opacity="0.3" fill-rule="evenodd" clip-rule="evenodd" d="M83 279V280L711 280V279L83 279Z" fill="#605F76"/>
<path opacity="0.3" fill-rule="evenodd" clip-rule="evenodd" d="M83 234V235L711 235V234L83 234Z" fill="#605F76"/>
<path opacity="0.3" fill-rule="evenodd" clip-rule="evenodd" d="M83 189V190L711 190V189L83 189Z" fill="#605F76"/>
<path opacity="0.3" fill-rule="evenodd" clip-rule="evenodd" d="M83 144V145L711 145V144L83 144Z" fill="#605F76"/>
<path opacity="0.3" fill-rule="evenodd" clip-rule="evenodd" d="M83 99V100L711 100V99L83 99Z" fill="#605F76"/>
<path d="M710 207.001C662.333 207.001 654.378 257 608.56 257C562.743 257 555.835 207.001 501.724 207.001C447.613 207.001 445.718 126.369 397.749 127.004C349.78 127.638 346.967 246.345 294.312 247C241.657 247.656 238.637 127.004 189.473 127.004C140.309 127.004 141.477 207.001 84 207.001" stroke="#182C94" stroke-width="2" stroke-linecap="round" stroke-dasharray="6 6 6 6"/>
<path fill-rule="evenodd" clip-rule="evenodd" d="M83 193C83 191.343 84.3431 190 86 190V190C87.6569 190 89 191.343 89 193V280H83L83 193Z" fill="#696EFF"/>
<path fill-rule="evenodd" clip-rule="evenodd" d="M97 233C97 231.343 98.3431 230 100 230V230C101.657 230 103 231.343 103 233V280H97L97 233Z" fill="#182C94"/>
<path fill-rule="evenodd" clip-rule="evenodd" d="M111 253C111 251.343 112.343 250 114 250V250C115.657 250 117 251.343 117 253V280H111L111 253Z" fill="#3C91FF"/>
<path fill-rule="evenodd" clip-rule="evenodd" d="M677 153C677 151.343 678.343 150 680 150V150C681.657 150 683 151.343 683 153V280H677L677 153Z" fill="#696EFF"/>
<path fill-rule="evenodd" clip-rule="evenodd" d="M691 183C691 181.343 692.343 180 694 180V180C695.657 180 697 181.343 697 183V280H691L691 183Z" fill="#182C94"/>
<path fill-rule="evenodd" clip-rule="evenodd" d="M705 243C705 241.343 706.343 240 708 240V240C709.657 240 711 241.343 711 243V280H705L705 243Z" fill="#3C91FF"/>
<path fill-rule="evenodd" clip-rule="evenodd" d="M182 103C182 101.343 183.343 100 185 100V100C186.657 100 188 101.343 188 103V280H182L182 103Z" fill="#696EFF"/>
<path fill-rule="evenodd" clip-rule="evenodd" d="M196 123C196 121.343 197.343 120 199 120V120C200.657 120 202 121.343 202 123V280H196L196 123Z" fill="#182C94"/>
<path fill-rule="evenodd" clip-rule="evenodd" d="M210 203C210 201.343 211.343 200 213 200V200C214.657 200 216 201.343 216 203V280H210L210 203Z" fill="#3C91FF"/>
<path fill-rule="evenodd" clip-rule="evenodd" d="M281 233C281 231.343 282.343 230 284 230V230C285.657 230 287 231.343 287 233V280H281L281 233Z" fill="#696EFF"/>
<path fill-rule="evenodd" clip-rule="evenodd" d="M295 243C295 241.343 296.343 240 298 240V240C299.657 240 301 241.343 301 243V280H295L295 243Z" fill="#182C94"/>
<path fill-rule="evenodd" clip-rule="evenodd" d="M309 263C309 261.343 310.343 260 312 260V260C313.657 260 315 261.343 315 263V280H309L309 263Z" fill="#3C91FF"/>
<path fill-rule="evenodd" clip-rule="evenodd" d="M380 173C380 171.343 381.343 170 383 170V170C384.657 170 386 171.343 386 173V280H380L380 173Z" fill="#696EFF"/>
<path fill-rule="evenodd" clip-rule="evenodd" d="M394 193C394 191.343 395.343 190 397 190V190C398.657 190 400 191.343 400 193V280H394L394 193Z" fill="#182C94"/>
<path fill-rule="evenodd" clip-rule="evenodd" d="M408 233C408 231.343 409.343 230 411 230V230C412.657 230 414 231.343 414 233V280H408L408 233Z" fill="#3C91FF"/>
<path fill-rule="evenodd" clip-rule="evenodd" d="M479 213C479 211.343 480.343 210 482 210V210C483.657 210 485 211.343 485 213V280H479L479 213Z" fill="#696EFF"/>
<path fill-rule="evenodd" clip-rule="evenodd" d="M493 243C493 241.343 494.343 240 496 240V240C497.657 240 499 241.343 499 243V280H493L493 243Z" fill="#182C94"/>
<path fill-rule="evenodd" clip-rule="evenodd" d="M507 273C507 271.343 508.343 270 510 270V270C511.657 270 513 271.343 513 273V280H507L507 273Z" fill="#3C91FF"/>
<path fill-rule="evenodd" clip-rule="evenodd" d="M578 223C578 221.343 579.343 220 581 220V220C582.657 220 584 221.343 584 223V280H578L578 223Z" fill="#696EFF"/>
<path fill-rule="evenodd" clip-rule="evenodd" d="M592 243C592 241.343 593.343 240 595 240V240C596.657 240 598 241.343 598 243V280H592V243Z" fill="#182C94"/>
<path fill-rule="evenodd" clip-rule="evenodd" d="M606 233C606 231.343 607.343 230 609 230V230C610.657 230 612 231.343 612 233V280H606L606 233Z" fill="#3C91FF"/>
<path d="M29.517 46V28.5455H33.2074V42.9574H40.6903V46H29.517ZM43.4661 46V32.9091H47.0967V46H43.4661ZM45.2899 31.2216C44.7501 31.2216 44.2871 31.0426 43.9007 30.6847C43.52 30.321 43.3297 29.8864 43.3297 29.3807C43.3297 28.8807 43.52 28.4517 43.9007 28.0938C44.2871 27.7301 44.7501 27.5483 45.2899 27.5483C45.8297 27.5483 46.2899 27.7301 46.6706 28.0938C47.057 28.4517 47.2501 28.8807 47.2501 29.3807C47.2501 29.8864 47.057 30.321 46.6706 30.6847C46.2899 31.0426 45.8297 31.2216 45.2899 31.2216ZM54.0358 38.4318V46H50.4051V32.9091H53.8653V35.2188H54.0187C54.3085 34.4574 54.7943 33.8551 55.4761 33.4119C56.158 32.9631 56.9847 32.7386 57.9562 32.7386C58.8653 32.7386 59.658 32.9375 60.3341 33.3352C61.0102 33.733 61.5358 34.3011 61.9108 35.0398C62.2858 35.7727 62.4733 36.6477 62.4733 37.6648V46H58.8426V38.3125C58.8483 37.5114 58.6437 36.8864 58.229 36.4375C57.8142 35.983 57.2432 35.7557 56.5159 35.7557C56.0273 35.7557 55.5955 35.8608 55.2205 36.071C54.8511 36.2812 54.5614 36.5881 54.3511 36.9915C54.1466 37.3892 54.0415 37.8693 54.0358 38.4318ZM69.0246 42.233L69.0331 37.8778H69.5615L73.7547 32.9091H77.9223L72.2888 39.4886H71.428L69.0246 42.233ZM65.7348 46V28.5455H69.3655V46H65.7348ZM73.9166 46L70.0643 40.2983L72.4848 37.733L78.1695 46H73.9166ZM89.1349 46H85.1804L91.206 28.5455H95.9616L101.979 46H98.0241L93.652 32.5341H93.5156L89.1349 46ZM88.8878 39.1392H98.2287V42.0199H88.8878V39.1392ZM108.042 38.4318V46H104.411V32.9091H107.872V35.2188H108.025C108.315 34.4574 108.801 33.8551 109.482 33.4119C110.164 32.9631 110.991 32.7386 111.963 32.7386C112.872 32.7386 113.664 32.9375 114.34 33.3352C115.016 33.733 115.542 34.3011 115.917 35.0398C116.292 35.7727 116.48 36.6477 116.48 37.6648V46H112.849V38.3125C112.855 37.5114 112.65 36.8864 112.235 36.4375C111.82 35.983 111.249 35.7557 110.522 35.7557C110.034 35.7557 109.602 35.8608 109.227 36.071C108.857 36.2812 108.568 36.5881 108.357 36.9915C108.153 37.3892 108.048 37.8693 108.042 38.4318ZM123.474 46.2472C122.639 46.2472 121.894 46.1023 121.241 45.8125C120.588 45.517 120.071 45.0824 119.69 44.5085C119.315 43.929 119.127 43.2074 119.127 42.3438C119.127 41.6165 119.261 41.0057 119.528 40.5114C119.795 40.017 120.159 39.6193 120.619 39.3182C121.079 39.017 121.602 38.7898 122.187 38.6364C122.778 38.483 123.397 38.375 124.045 38.3125C124.806 38.233 125.42 38.1591 125.886 38.0909C126.352 38.017 126.69 37.9091 126.9 37.767C127.11 37.625 127.215 37.4148 127.215 37.1364V37.0852C127.215 36.5455 127.045 36.1278 126.704 35.8324C126.369 35.5369 125.892 35.3892 125.272 35.3892C124.619 35.3892 124.099 35.5341 123.713 35.8239C123.326 36.108 123.071 36.4659 122.946 36.8977L119.588 36.625C119.758 35.8295 120.093 35.142 120.593 34.5625C121.093 33.9773 121.738 33.5284 122.528 33.2159C123.323 32.8977 124.244 32.7386 125.289 32.7386C126.017 32.7386 126.713 32.8239 127.377 32.9943C128.048 33.1648 128.642 33.429 129.159 33.7869C129.681 34.1449 130.093 34.6051 130.394 35.1676C130.696 35.7244 130.846 36.392 130.846 37.1705V46H127.403V44.1847H127.301C127.09 44.5938 126.809 44.9545 126.457 45.267C126.105 45.5739 125.681 45.8153 125.187 45.9915C124.693 46.1619 124.122 46.2472 123.474 46.2472ZM124.514 43.7415C125.048 43.7415 125.519 43.6364 125.929 43.4261C126.338 43.2102 126.659 42.9205 126.892 42.5568C127.125 42.1932 127.241 41.7812 127.241 41.321V39.9318C127.127 40.0057 126.971 40.0739 126.772 40.1364C126.579 40.1932 126.36 40.2472 126.116 40.2983C125.872 40.3437 125.627 40.3864 125.383 40.4261C125.139 40.4602 124.917 40.4915 124.718 40.5199C124.292 40.5824 123.92 40.6818 123.602 40.8182C123.284 40.9545 123.037 41.1392 122.86 41.3722C122.684 41.5994 122.596 41.8835 122.596 42.2244C122.596 42.7188 122.775 43.0966 123.133 43.358C123.497 43.6136 123.957 43.7415 124.514 43.7415ZM137.694 28.5455V46H134.063V28.5455H137.694ZM143.243 50.9091C142.783 50.9091 142.351 50.8722 141.948 50.7983C141.55 50.7301 141.221 50.642 140.959 50.5341L141.778 47.8239C142.204 47.9545 142.587 48.0256 142.928 48.0369C143.275 48.0483 143.573 47.9688 143.823 47.7983C144.079 47.6278 144.286 47.3381 144.445 46.929L144.658 46.375L139.962 32.9091H143.78L146.491 42.5227H146.627L149.363 32.9091H153.207L148.118 47.4148C147.874 48.1193 147.542 48.733 147.121 49.2557C146.707 49.7841 146.181 50.1903 145.545 50.4744C144.908 50.7642 144.141 50.9091 143.243 50.9091ZM166.357 36.642L163.033 36.8466C162.976 36.5625 162.854 36.3068 162.666 36.0795C162.479 35.8466 162.232 35.6619 161.925 35.5256C161.624 35.3835 161.263 35.3125 160.842 35.3125C160.28 35.3125 159.805 35.4318 159.419 35.6705C159.033 35.9034 158.839 36.2159 158.839 36.608C158.839 36.9205 158.964 37.1847 159.214 37.4006C159.464 37.6165 159.893 37.7898 160.501 37.9205L162.871 38.3977C164.143 38.6591 165.092 39.0795 165.717 39.6591C166.342 40.2386 166.655 41 166.655 41.9432C166.655 42.8011 166.402 43.554 165.896 44.2017C165.396 44.8494 164.709 45.3551 163.834 45.7188C162.964 46.0767 161.962 46.2557 160.825 46.2557C159.092 46.2557 157.712 45.8949 156.683 45.1733C155.661 44.446 155.061 43.4574 154.885 42.2074L158.456 42.0199C158.564 42.5483 158.825 42.9517 159.24 43.2301C159.655 43.5028 160.186 43.6392 160.834 43.6392C161.47 43.6392 161.982 43.517 162.368 43.2727C162.76 43.0227 162.959 42.7017 162.964 42.3097C162.959 41.9801 162.82 41.7102 162.547 41.5C162.274 41.2841 161.854 41.1193 161.286 41.0057L159.018 40.554C157.74 40.2983 156.788 39.8551 156.163 39.2244C155.544 38.5937 155.234 37.7898 155.234 36.8125C155.234 35.9716 155.462 35.2472 155.916 34.6392C156.376 34.0312 157.021 33.5625 157.851 33.233C158.686 32.9034 159.663 32.7386 160.783 32.7386C162.436 32.7386 163.737 33.0881 164.686 33.7869C165.641 34.4858 166.197 35.4375 166.357 36.642ZM169.341 46V32.9091H172.972V46H169.341ZM171.165 31.2216C170.625 31.2216 170.162 31.0426 169.776 30.6847C169.395 30.321 169.205 29.8864 169.205 29.3807C169.205 28.8807 169.395 28.4517 169.776 28.0938C170.162 27.7301 170.625 27.5483 171.165 27.5483C171.705 27.5483 172.165 27.7301 172.546 28.0938C172.932 28.4517 173.125 28.8807 173.125 29.3807C173.125 29.8864 172.932 30.321 172.546 30.6847C172.165 31.0426 171.705 31.2216 171.165 31.2216ZM187.172 36.642L183.848 36.8466C183.791 36.5625 183.669 36.3068 183.482 36.0795C183.294 35.8466 183.047 35.6619 182.74 35.5256C182.439 35.3835 182.078 35.3125 181.658 35.3125C181.095 35.3125 180.621 35.4318 180.235 35.6705C179.848 35.9034 179.655 36.2159 179.655 36.608C179.655 36.9205 179.78 37.1847 180.03 37.4006C180.28 37.6165 180.709 37.7898 181.317 37.9205L183.686 38.3977C184.959 38.6591 185.908 39.0795 186.533 39.6591C187.158 40.2386 187.47 41 187.47 41.9432C187.47 42.8011 187.218 43.554 186.712 44.2017C186.212 44.8494 185.524 45.3551 184.649 45.7188C183.78 46.0767 182.777 46.2557 181.641 46.2557C179.908 46.2557 178.527 45.8949 177.499 45.1733C176.476 44.446 175.877 43.4574 175.701 42.2074L179.272 42.0199C179.38 42.5483 179.641 42.9517 180.056 43.2301C180.47 43.5028 181.002 43.6392 181.649 43.6392C182.286 43.6392 182.797 43.517 183.184 43.2727C183.576 43.0227 183.774 42.7017 183.78 42.3097C183.774 41.9801 183.635 41.7102 183.363 41.5C183.09 41.2841 182.669 41.1193 182.101 41.0057L179.834 40.554C178.556 40.2983 177.604 39.8551 176.979 39.2244C176.36 38.5937 176.05 37.7898 176.05 36.8125C176.05 35.9716 176.277 35.2472 176.732 34.6392C177.192 34.0312 177.837 33.5625 178.666 33.233C179.502 32.9034 180.479 32.7386 181.598 32.7386C183.252 32.7386 184.553 33.0881 185.502 33.7869C186.456 34.4858 187.013 35.4375 187.172 36.642Z" fill="white"/>
</g>
<defs>
<clipPath id="clip0_102_1458">
<rect width="780" height="360" fill="white"/>
</clipPath>
<clipPath id="clip1_102_1458">
<rect width="614" height="20" fill="white" transform="translate(83 291)"/>
</clipPath>
<clipPath id="clip2_102_1458">
<rect width="22" height="200" fill="white" transform="translate(28 89)"/>
</clipPath>
<clipPath id="clip3_102_1458">
<rect width="81" height="36" fill="white" transform="translate(256 20)"/>
</clipPath>
</defs>
</svg>
