<svg width="572" height="298" viewBox="0 0 572 298" fill="none" xmlns="http://www.w3.org/2000/svg">
<rect width="266.284" height="90.5233" rx="25" fill="#12141F"/>
<path d="M36.2756 59V32.8182H46.6051C48.5909 32.8182 50.2827 33.1974 51.6804 33.956C53.0781 34.706 54.1435 35.75 54.8764 37.0881C55.6179 38.4176 55.9886 39.9517 55.9886 41.6903C55.9886 43.429 55.6136 44.9631 54.8636 46.2926C54.1136 47.6222 53.027 48.6577 51.6037 49.3991C50.1889 50.1406 48.4759 50.5114 46.4645 50.5114H39.8807V46.0753H45.5696C46.6349 46.0753 47.5128 45.892 48.2031 45.5256C48.902 45.1506 49.4219 44.6349 49.7628 43.9787C50.1122 43.3139 50.2869 42.5511 50.2869 41.6903C50.2869 40.821 50.1122 40.0625 49.7628 39.4148C49.4219 38.7585 48.902 38.2514 48.2031 37.8935C47.5043 37.527 46.6179 37.3438 45.544 37.3438H41.8111V59H36.2756ZM59.4819 59V39.3636H64.7617V42.7898H64.9663C65.3242 41.571 65.9251 40.6506 66.7688 40.0284C67.6126 39.3977 68.5842 39.0824 69.6836 39.0824C69.9563 39.0824 70.2504 39.0994 70.5657 39.1335C70.881 39.1676 71.158 39.2145 71.3967 39.2741V44.1065C71.141 44.0298 70.7873 43.9616 70.3356 43.902C69.8839 43.8423 69.4705 43.8125 69.0955 43.8125C68.2944 43.8125 67.5785 43.9872 66.9478 44.3366C66.3256 44.6776 65.8313 45.1548 65.4648 45.7685C65.1069 46.3821 64.9279 47.0895 64.9279 47.8906V59H59.4819ZM82.1705 59.3835C80.1847 59.3835 78.4673 58.9616 77.0185 58.1179C75.5781 57.2656 74.4659 56.081 73.6818 54.5639C72.8977 53.0384 72.5057 51.2699 72.5057 49.2585C72.5057 47.2301 72.8977 45.4574 73.6818 43.9403C74.4659 42.4148 75.5781 41.2301 77.0185 40.3864C78.4673 39.5341 80.1847 39.108 82.1705 39.108C84.1562 39.108 85.8693 39.5341 87.3097 40.3864C88.7585 41.2301 89.875 42.4148 90.6591 43.9403C91.4432 45.4574 91.8352 47.2301 91.8352 49.2585C91.8352 51.2699 91.4432 53.0384 90.6591 54.5639C89.875 56.081 88.7585 57.2656 87.3097 58.1179C85.8693 58.9616 84.1562 59.3835 82.1705 59.3835ZM82.196 55.1648C83.0994 55.1648 83.8537 54.9091 84.4588 54.3977C85.0639 53.8778 85.5199 53.1705 85.8267 52.2756C86.142 51.3807 86.2997 50.3622 86.2997 49.2202C86.2997 48.0781 86.142 47.0597 85.8267 46.1648C85.5199 45.2699 85.0639 44.5625 84.4588 44.0426C83.8537 43.5227 83.0994 43.2628 82.196 43.2628C81.2841 43.2628 80.517 43.5227 79.8949 44.0426C79.2813 44.5625 78.8168 45.2699 78.5014 46.1648C78.1946 47.0597 78.0412 48.0781 78.0412 49.2202C78.0412 50.3622 78.1946 51.3807 78.5014 52.2756C78.8168 53.1705 79.2813 53.8778 79.8949 54.3977C80.517 54.9091 81.2841 55.1648 82.196 55.1648ZM105.936 39.3636V43.4545H93.8168V39.3636H105.936ZM96.5909 59V37.9446C96.5909 36.5213 96.8679 35.3409 97.4219 34.4034C97.9844 33.4659 98.7514 32.7628 99.723 32.294C100.695 31.8253 101.798 31.5909 103.034 31.5909C103.869 31.5909 104.632 31.6548 105.322 31.7827C106.021 31.9105 106.541 32.0256 106.882 32.1278L105.911 36.2188C105.697 36.1506 105.433 36.0866 105.118 36.027C104.811 35.9673 104.496 35.9375 104.172 35.9375C103.371 35.9375 102.812 36.125 102.497 36.5C102.182 36.8665 102.024 37.3821 102.024 38.0469V59H96.5909ZM109.263 59V39.3636H114.709V59H109.263ZM111.999 36.8324C111.189 36.8324 110.495 36.5639 109.915 36.027C109.344 35.4815 109.059 34.8295 109.059 34.071C109.059 33.321 109.344 32.6776 109.915 32.1406C110.495 31.5952 111.189 31.3224 111.999 31.3224C112.809 31.3224 113.499 31.5952 114.07 32.1406C114.65 32.6776 114.939 33.321 114.939 34.071C114.939 34.8295 114.65 35.4815 114.07 36.027C113.499 36.5639 112.809 36.8324 111.999 36.8324ZM124.518 32.8182V59H119.072V32.8182H124.518ZM137.829 59.3835C135.809 59.3835 134.071 58.9744 132.613 58.1562C131.164 57.3295 130.048 56.1619 129.264 54.6534C128.48 53.1364 128.088 51.3423 128.088 49.2713C128.088 47.2514 128.48 45.4787 129.264 43.9531C130.048 42.4276 131.152 41.2386 132.575 40.3864C134.007 39.5341 135.686 39.108 137.612 39.108C138.907 39.108 140.113 39.3168 141.23 39.7344C142.355 40.1435 143.335 40.7614 144.17 41.5881C145.014 42.4148 145.67 43.4545 146.139 44.7074C146.608 45.9517 146.842 47.4091 146.842 49.0795V50.5753H130.261V47.2003H141.716C141.716 46.4162 141.545 45.7216 141.204 45.1165C140.863 44.5114 140.39 44.0384 139.785 43.6974C139.189 43.348 138.494 43.1733 137.701 43.1733C136.875 43.1733 136.142 43.3651 135.502 43.7486C134.872 44.1236 134.377 44.6307 134.02 45.2699C133.662 45.9006 133.478 46.6037 133.47 47.3793V50.5881C133.47 51.5597 133.649 52.3991 134.007 53.1065C134.373 53.8139 134.889 54.3594 135.554 54.7429C136.218 55.1264 137.007 55.3182 137.919 55.3182C138.524 55.3182 139.078 55.233 139.581 55.0625C140.083 54.892 140.514 54.6364 140.872 54.2955C141.23 53.9545 141.502 53.5369 141.69 53.0426L146.727 53.375C146.471 54.5852 145.947 55.642 145.154 56.5455C144.37 57.4403 143.356 58.1392 142.112 58.642C140.876 59.1364 139.449 59.3835 137.829 59.3835ZM164.366 32.8182V59H158.83V32.8182H164.366ZM174.264 47.6477V59H168.818V39.3636H174.008V42.8281H174.238C174.673 41.6861 175.402 40.7827 176.424 40.1179C177.447 39.4446 178.687 39.108 180.145 39.108C181.508 39.108 182.697 39.4062 183.711 40.0028C184.725 40.5994 185.514 41.4517 186.076 42.5597C186.639 43.6591 186.92 44.9716 186.92 46.4972V59H181.474V47.4688C181.483 46.267 181.176 45.3295 180.554 44.6562C179.931 43.9744 179.075 43.6335 177.984 43.6335C177.251 43.6335 176.603 43.7912 176.041 44.1065C175.487 44.4219 175.052 44.8821 174.737 45.4872C174.43 46.0838 174.272 46.804 174.264 47.6477ZM201.772 39.3636V43.4545H189.653V39.3636H201.772ZM192.427 59V37.9446C192.427 36.5213 192.704 35.3409 193.258 34.4034C193.82 33.4659 194.587 32.7628 195.559 32.294C196.531 31.8253 197.634 31.5909 198.87 31.5909C199.705 31.5909 200.468 31.6548 201.158 31.7827C201.857 31.9105 202.377 32.0256 202.718 32.1278L201.746 36.2188C201.533 36.1506 201.269 36.0866 200.954 36.027C200.647 35.9673 200.332 35.9375 200.008 35.9375C199.207 35.9375 198.648 36.125 198.333 36.5C198.018 36.8665 197.86 37.3821 197.86 38.0469V59H192.427ZM213.268 59.3835C211.282 59.3835 209.565 58.9616 208.116 58.1179C206.676 57.2656 205.564 56.081 204.779 54.5639C203.995 53.0384 203.603 51.2699 203.603 49.2585C203.603 47.2301 203.995 45.4574 204.779 43.9403C205.564 42.4148 206.676 41.2301 208.116 40.3864C209.565 39.5341 211.282 39.108 213.268 39.108C215.254 39.108 216.967 39.5341 218.407 40.3864C219.856 41.2301 220.973 42.4148 221.757 43.9403C222.541 45.4574 222.933 47.2301 222.933 49.2585C222.933 51.2699 222.541 53.0384 221.757 54.5639C220.973 56.081 219.856 57.2656 218.407 58.1179C216.967 58.9616 215.254 59.3835 213.268 59.3835ZM213.294 55.1648C214.197 55.1648 214.951 54.9091 215.556 54.3977C216.162 53.8778 216.618 53.1705 216.924 52.2756C217.24 51.3807 217.397 50.3622 217.397 49.2202C217.397 48.0781 217.24 47.0597 216.924 46.1648C216.618 45.2699 216.162 44.5625 215.556 44.0426C214.951 43.5227 214.197 43.2628 213.294 43.2628C212.382 43.2628 211.615 43.5227 210.993 44.0426C210.379 44.5625 209.914 45.2699 209.599 46.1648C209.292 47.0597 209.139 48.0781 209.139 49.2202C209.139 50.3622 209.292 51.3807 209.599 52.2756C209.914 53.1705 210.379 53.8778 210.993 54.3977C211.615 54.9091 212.382 55.1648 213.294 55.1648Z" fill="#FAFAFA"/>
<rect x="282.142" width="274.213" height="90.5233" rx="25" fill="#12141F"/>
<rect x="186.333" y="207.477" width="159.242" height="90.5233" rx="25" fill="#12141F"/>
<path d="M220.276 265V238.818H225.811V260.436H237.036V265H220.276ZM240.599 265V245.364H246.045V265H240.599ZM243.335 242.832C242.525 242.832 241.831 242.564 241.251 242.027C240.68 241.482 240.395 240.83 240.395 240.071C240.395 239.321 240.68 238.678 241.251 238.141C241.831 237.595 242.525 237.322 243.335 237.322C244.145 237.322 244.835 237.595 245.406 238.141C245.985 238.678 246.275 239.321 246.275 240.071C246.275 240.83 245.985 241.482 245.406 242.027C244.835 242.564 244.145 242.832 243.335 242.832ZM255.854 253.648V265H250.408V245.364H255.598V248.828H255.828C256.263 247.686 256.991 246.783 258.014 246.118C259.037 245.445 260.277 245.108 261.734 245.108C263.098 245.108 264.287 245.406 265.301 246.003C266.315 246.599 267.104 247.452 267.666 248.56C268.229 249.659 268.51 250.972 268.51 252.497V265H263.064V253.469C263.072 252.267 262.766 251.33 262.143 250.656C261.521 249.974 260.665 249.634 259.574 249.634C258.841 249.634 258.193 249.791 257.631 250.107C257.077 250.422 256.642 250.882 256.327 251.487C256.02 252.084 255.862 252.804 255.854 253.648ZM277.737 259.349L277.75 252.817H278.542L284.832 245.364H291.083L282.633 255.233H281.342L277.737 259.349ZM272.802 265V238.818H278.248V265H272.802ZM285.075 265L279.297 256.447L282.927 252.599L291.454 265H285.075ZM310.093 250.963L305.108 251.27C305.022 250.844 304.839 250.46 304.558 250.119C304.277 249.77 303.906 249.493 303.446 249.288C302.994 249.075 302.453 248.969 301.822 248.969C300.978 248.969 300.267 249.148 299.687 249.506C299.108 249.855 298.818 250.324 298.818 250.912C298.818 251.381 299.005 251.777 299.38 252.101C299.755 252.425 300.399 252.685 301.311 252.881L304.865 253.597C306.774 253.989 308.197 254.619 309.135 255.489C310.072 256.358 310.541 257.5 310.541 258.915C310.541 260.202 310.162 261.331 309.403 262.303C308.653 263.274 307.622 264.033 306.309 264.578C305.005 265.115 303.501 265.384 301.797 265.384C299.197 265.384 297.126 264.842 295.583 263.76C294.049 262.669 293.15 261.186 292.886 259.311L298.243 259.03C298.404 259.822 298.797 260.428 299.419 260.845C300.041 261.254 300.838 261.459 301.809 261.459C302.764 261.459 303.531 261.276 304.11 260.909C304.699 260.534 304.997 260.053 305.005 259.464C304.997 258.97 304.788 258.565 304.379 258.25C303.97 257.926 303.339 257.679 302.487 257.509L299.086 256.831C297.169 256.447 295.741 255.783 294.804 254.837C293.875 253.891 293.41 252.685 293.41 251.219C293.41 249.957 293.751 248.871 294.433 247.959C295.123 247.047 296.091 246.344 297.335 245.849C298.588 245.355 300.054 245.108 301.733 245.108C304.213 245.108 306.164 245.632 307.588 246.68C309.02 247.729 309.855 249.156 310.093 250.963Z" fill="#FAFAFA"/>
<rect x="83.255" y="102.417" width="147.348" height="91.8448" rx="25" fill="#12141F"/>
<path d="M112.285 137.961V133.397H133.788V137.961H125.772V159.579H120.301V137.961H112.285ZM140.154 159.949C138.901 159.949 137.785 159.732 136.805 159.297C135.825 158.854 135.049 158.202 134.478 157.342C133.916 156.472 133.634 155.39 133.634 154.094C133.634 153.003 133.835 152.087 134.235 151.346C134.636 150.604 135.181 150.008 135.872 149.556C136.562 149.104 137.346 148.763 138.224 148.533C139.11 148.303 140.039 148.141 141.011 148.047C142.153 147.928 143.073 147.817 143.772 147.715C144.471 147.604 144.978 147.442 145.294 147.229C145.609 147.016 145.767 146.701 145.767 146.283V146.207C145.767 145.397 145.511 144.77 144.999 144.327C144.497 143.884 143.781 143.663 142.852 143.663C141.872 143.663 141.092 143.88 140.512 144.315C139.933 144.741 139.549 145.278 139.362 145.925L134.325 145.516C134.58 144.323 135.083 143.292 135.833 142.422C136.583 141.545 137.551 140.871 138.735 140.403C139.928 139.925 141.309 139.687 142.877 139.687C143.968 139.687 145.012 139.815 146.009 140.07C147.015 140.326 147.906 140.722 148.681 141.259C149.465 141.796 150.083 142.486 150.535 143.33C150.987 144.165 151.213 145.167 151.213 146.334V159.579H146.048V156.856H145.894C145.579 157.469 145.157 158.011 144.629 158.479C144.1 158.94 143.465 159.302 142.724 159.566C141.982 159.822 141.126 159.949 140.154 159.949ZM141.714 156.191C142.515 156.191 143.223 156.033 143.836 155.718C144.45 155.394 144.931 154.959 145.281 154.414C145.63 153.869 145.805 153.251 145.805 152.56V150.476C145.634 150.587 145.4 150.69 145.102 150.783C144.812 150.869 144.484 150.949 144.117 151.026C143.751 151.094 143.384 151.158 143.018 151.218C142.651 151.269 142.319 151.316 142.021 151.359C141.382 151.452 140.823 151.601 140.346 151.806C139.869 152.011 139.498 152.288 139.234 152.637C138.97 152.978 138.838 153.404 138.838 153.915C138.838 154.657 139.106 155.224 139.643 155.616C140.188 155.999 140.879 156.191 141.714 156.191ZM164.284 167.351C162.52 167.351 161.007 167.109 159.746 166.623C158.493 166.145 157.496 165.494 156.754 164.667C156.013 163.84 155.531 162.911 155.31 161.88L160.347 161.202C160.5 161.594 160.743 161.961 161.075 162.302C161.408 162.643 161.847 162.915 162.392 163.12C162.946 163.333 163.62 163.44 164.412 163.44C165.597 163.44 166.573 163.15 167.34 162.57C168.115 161.999 168.503 161.04 168.503 159.694V156.101H168.273C168.034 156.647 167.676 157.163 167.199 157.648C166.722 158.134 166.108 158.53 165.358 158.837C164.608 159.144 163.713 159.297 162.673 159.297C161.199 159.297 159.857 158.957 158.647 158.275C157.445 157.584 156.486 156.532 155.77 155.117C155.063 153.694 154.709 151.895 154.709 149.722C154.709 147.498 155.071 145.64 155.796 144.148C156.52 142.657 157.483 141.54 158.685 140.799C159.895 140.057 161.22 139.687 162.661 139.687C163.76 139.687 164.681 139.874 165.422 140.249C166.164 140.616 166.76 141.076 167.212 141.63C167.672 142.175 168.026 142.712 168.273 143.241H168.477V139.942H173.885V159.77C173.885 161.441 173.476 162.839 172.658 163.964C171.84 165.089 170.706 165.932 169.257 166.495C167.817 167.066 166.159 167.351 164.284 167.351ZM164.399 155.207C165.277 155.207 166.019 154.989 166.624 154.555C167.237 154.111 167.706 153.481 168.03 152.663C168.362 151.836 168.529 150.847 168.529 149.697C168.529 148.546 168.367 147.549 168.043 146.705C167.719 145.853 167.25 145.192 166.637 144.724C166.023 144.255 165.277 144.02 164.399 144.02C163.504 144.02 162.75 144.263 162.137 144.749C161.523 145.226 161.058 145.891 160.743 146.744C160.428 147.596 160.27 148.58 160.27 149.697C160.27 150.83 160.428 151.81 160.743 152.637C161.067 153.455 161.531 154.09 162.137 154.542C162.75 154.985 163.504 155.207 164.399 155.207ZM194.557 145.542L189.571 145.849C189.486 145.422 189.303 145.039 189.022 144.698C188.74 144.349 188.37 144.072 187.909 143.867C187.458 143.654 186.916 143.547 186.286 143.547C185.442 143.547 184.73 143.726 184.151 144.084C183.571 144.434 183.281 144.903 183.281 145.491C183.281 145.959 183.469 146.356 183.844 146.68C184.219 147.003 184.862 147.263 185.774 147.459L189.328 148.175C191.237 148.567 192.661 149.198 193.598 150.067C194.536 150.937 195.004 152.079 195.004 153.494C195.004 154.78 194.625 155.91 193.867 156.881C193.117 157.853 192.085 158.611 190.773 159.157C189.469 159.694 187.965 159.962 186.26 159.962C183.661 159.962 181.59 159.421 180.047 158.339C178.513 157.248 177.614 155.765 177.35 153.89L182.706 153.609C182.868 154.401 183.26 155.006 183.882 155.424C184.504 155.833 185.301 156.038 186.273 156.038C187.227 156.038 187.995 155.854 188.574 155.488C189.162 155.113 189.46 154.631 189.469 154.043C189.46 153.549 189.252 153.144 188.843 152.829C188.433 152.505 187.803 152.258 186.95 152.087L183.55 151.41C181.632 151.026 180.205 150.361 179.267 149.415C178.338 148.469 177.874 147.263 177.874 145.797C177.874 144.536 178.215 143.449 178.897 142.538C179.587 141.626 180.554 140.922 181.798 140.428C183.051 139.934 184.517 139.687 186.196 139.687C188.676 139.687 190.628 140.211 192.051 141.259C193.483 142.307 194.318 143.735 194.557 145.542Z" fill="#FAFAFA"/>
<rect x="11.2328" y="206.155" width="162.545" height="91.8448" rx="25" fill="#12141F"/>
<path d="M46.2784 242.382V237.818H67.7812V242.382H59.7656V264H54.294V242.382H46.2784ZM77.2447 264.384C75.2589 264.384 73.5415 263.962 72.0927 263.118C70.6523 262.266 69.5401 261.081 68.756 259.564C67.9719 258.038 67.5799 256.27 67.5799 254.259C67.5799 252.23 67.9719 250.457 68.756 248.94C69.5401 247.415 70.6523 246.23 72.0927 245.386C73.5415 244.534 75.2589 244.108 77.2447 244.108C79.2305 244.108 80.9435 244.534 82.3839 245.386C83.8327 246.23 84.9492 247.415 85.7333 248.94C86.5174 250.457 86.9094 252.23 86.9094 254.259C86.9094 256.27 86.5174 258.038 85.7333 259.564C84.9492 261.081 83.8327 262.266 82.3839 263.118C80.9435 263.962 79.2305 264.384 77.2447 264.384ZM77.2702 260.165C78.1737 260.165 78.9279 259.909 79.533 259.398C80.1381 258.878 80.5941 258.17 80.9009 257.276C81.2163 256.381 81.3739 255.362 81.3739 254.22C81.3739 253.078 81.2163 252.06 80.9009 251.165C80.5941 250.27 80.1381 249.562 79.533 249.043C78.9279 248.523 78.1737 248.263 77.2702 248.263C76.3583 248.263 75.5913 248.523 74.9691 249.043C74.3555 249.562 73.891 250.27 73.5756 251.165C73.2688 252.06 73.1154 253.078 73.1154 254.22C73.1154 255.362 73.2688 256.381 73.5756 257.276C73.891 258.17 74.3555 258.878 74.9691 259.398C75.5913 259.909 76.3583 260.165 77.2702 260.165ZM99.3228 264.384C97.337 264.384 95.6197 263.962 94.1708 263.118C92.7305 262.266 91.6183 261.081 90.8342 259.564C90.0501 258.038 89.658 256.27 89.658 254.259C89.658 252.23 90.0501 250.457 90.8342 248.94C91.6183 247.415 92.7305 246.23 94.1708 245.386C95.6197 244.534 97.337 244.108 99.3228 244.108C101.309 244.108 103.022 244.534 104.462 245.386C105.911 246.23 107.027 247.415 107.811 248.94C108.596 250.457 108.988 252.23 108.988 254.259C108.988 256.27 108.596 258.038 107.811 259.564C107.027 261.081 105.911 262.266 104.462 263.118C103.022 263.962 101.309 264.384 99.3228 264.384ZM99.3484 260.165C100.252 260.165 101.006 259.909 101.611 259.398C102.216 258.878 102.672 258.17 102.979 257.276C103.294 256.381 103.452 255.362 103.452 254.22C103.452 253.078 103.294 252.06 102.979 251.165C102.672 250.27 102.216 249.562 101.611 249.043C101.006 248.523 100.252 248.263 99.3484 248.263C98.4364 248.263 97.6694 248.523 97.0472 249.043C96.4336 249.562 95.9691 250.27 95.6538 251.165C95.3469 252.06 95.1935 253.078 95.1935 254.22C95.1935 255.362 95.3469 256.381 95.6538 257.276C95.9691 258.17 96.4336 258.878 97.0472 259.398C97.6694 259.909 98.4364 260.165 99.3484 260.165ZM117.975 237.818V264H112.529V237.818H117.975ZM138.675 249.963L133.69 250.27C133.604 249.844 133.421 249.46 133.14 249.119C132.859 248.77 132.488 248.493 132.028 248.288C131.576 248.075 131.035 247.969 130.404 247.969C129.56 247.969 128.849 248.148 128.269 248.506C127.69 248.855 127.4 249.324 127.4 249.912C127.4 250.381 127.587 250.777 127.962 251.101C128.337 251.425 128.981 251.685 129.893 251.881L133.447 252.597C135.356 252.989 136.779 253.619 137.717 254.489C138.654 255.358 139.123 256.5 139.123 257.915C139.123 259.202 138.744 260.331 137.985 261.303C137.235 262.274 136.204 263.033 134.891 263.578C133.587 264.115 132.083 264.384 130.379 264.384C127.779 264.384 125.708 263.842 124.165 262.76C122.631 261.669 121.732 260.186 121.468 258.311L126.825 258.03C126.987 258.822 127.379 259.428 128.001 259.845C128.623 260.254 129.42 260.459 130.391 260.459C131.346 260.459 132.113 260.276 132.692 259.909C133.281 259.534 133.579 259.053 133.587 258.464C133.579 257.97 133.37 257.565 132.961 257.25C132.552 256.926 131.921 256.679 131.069 256.509L127.668 255.831C125.751 255.447 124.323 254.783 123.386 253.837C122.457 252.891 121.992 251.685 121.992 250.219C121.992 248.957 122.333 247.871 123.015 246.959C123.705 246.047 124.673 245.344 125.917 244.849C127.17 244.355 128.636 244.108 130.315 244.108C132.795 244.108 134.746 244.632 136.17 245.68C137.602 246.729 138.437 248.156 138.675 249.963Z" fill="#FAFAFA"/>
<rect x="244.479" y="102.417" width="278.838" height="91.8448" rx="25" fill="#12141F"/>
<path d="M283.278 138.382V133.818H304.781V138.382H296.766V160H291.294V138.382H283.278ZM313.666 148.648V160H308.22V133.818H313.513V143.828H313.743C314.186 142.669 314.902 141.761 315.891 141.105C316.879 140.44 318.119 140.108 319.611 140.108C320.974 140.108 322.163 140.406 323.178 141.003C324.2 141.591 324.993 142.439 325.555 143.547C326.126 144.646 326.408 145.963 326.399 147.497V160H320.953V148.469C320.962 147.259 320.655 146.317 320.033 145.643C319.419 144.97 318.558 144.634 317.45 144.634C316.709 144.634 316.053 144.791 315.482 145.107C314.919 145.422 314.476 145.882 314.152 146.487C313.837 147.084 313.675 147.804 313.666 148.648ZM343.277 151.639V140.364H348.723V160H343.495V156.433H343.29C342.847 157.584 342.11 158.509 341.078 159.207C340.056 159.906 338.807 160.256 337.333 160.256C336.02 160.256 334.865 159.957 333.868 159.361C332.871 158.764 332.091 157.916 331.529 156.817C330.975 155.717 330.694 154.401 330.685 152.866V140.364H336.131V151.895C336.14 153.054 336.451 153.97 337.064 154.643C337.678 155.317 338.5 155.653 339.532 155.653C340.188 155.653 340.801 155.504 341.373 155.206C341.944 154.899 342.404 154.447 342.753 153.851C343.111 153.254 343.286 152.517 343.277 151.639ZM353.08 160V140.364H358.27V143.828H358.5C358.909 142.678 359.591 141.77 360.545 141.105C361.5 140.44 362.642 140.108 363.972 140.108C365.318 140.108 366.464 140.445 367.411 141.118C368.357 141.783 368.987 142.686 369.303 143.828H369.507C369.908 142.703 370.632 141.804 371.68 141.131C372.737 140.449 373.986 140.108 375.426 140.108C377.259 140.108 378.746 140.692 379.888 141.859C381.038 143.018 381.614 144.663 381.614 146.794V160H376.18V147.868C376.18 146.777 375.891 145.959 375.311 145.413C374.732 144.868 374.007 144.595 373.138 144.595C372.149 144.595 371.378 144.911 370.824 145.541C370.27 146.163 369.993 146.986 369.993 148.009V160H364.713V147.753C364.713 146.79 364.436 146.023 363.882 145.452C363.337 144.881 362.616 144.595 361.722 144.595C361.116 144.595 360.571 144.749 360.085 145.055C359.608 145.354 359.229 145.776 358.947 146.321C358.666 146.858 358.526 147.489 358.526 148.213V160H353.08ZM386.018 160V133.818H391.464V143.662H391.63C391.869 143.134 392.214 142.597 392.665 142.051C393.126 141.497 393.722 141.037 394.455 140.67C395.197 140.295 396.117 140.108 397.217 140.108C398.648 140.108 399.969 140.483 401.18 141.233C402.39 141.974 403.357 143.095 404.082 144.595C404.806 146.087 405.168 147.957 405.168 150.207C405.168 152.398 404.815 154.247 404.107 155.756C403.408 157.256 402.454 158.393 401.244 159.169C400.042 159.936 398.695 160.32 397.204 160.32C396.147 160.32 395.248 160.145 394.506 159.795C393.773 159.446 393.173 159.007 392.704 158.479C392.235 157.942 391.877 157.401 391.63 156.855H391.387V160H386.018ZM391.349 150.182C391.349 151.349 391.511 152.368 391.835 153.237C392.158 154.107 392.627 154.784 393.241 155.27C393.854 155.747 394.6 155.986 395.478 155.986C396.364 155.986 397.114 155.743 397.728 155.257C398.342 154.763 398.806 154.081 399.121 153.212C399.445 152.334 399.607 151.324 399.607 150.182C399.607 149.048 399.45 148.051 399.134 147.19C398.819 146.33 398.354 145.656 397.741 145.17C397.127 144.685 396.373 144.442 395.478 144.442C394.592 144.442 393.842 144.676 393.228 145.145C392.623 145.614 392.158 146.278 391.835 147.139C391.511 148 391.349 149.014 391.349 150.182ZM414.248 148.648V160H408.802V140.364H413.993V143.828H414.223C414.657 142.686 415.386 141.783 416.409 141.118C417.431 140.445 418.672 140.108 420.129 140.108C421.493 140.108 422.681 140.406 423.696 141.003C424.71 141.599 425.498 142.452 426.061 143.56C426.623 144.659 426.904 145.972 426.904 147.497V160H421.458V148.469C421.467 147.267 421.16 146.33 420.538 145.656C419.916 144.974 419.059 144.634 417.968 144.634C417.235 144.634 416.588 144.791 416.025 145.107C415.471 145.422 415.037 145.882 414.721 146.487C414.414 147.084 414.257 147.804 414.248 148.648ZM436.796 160.371C435.543 160.371 434.427 160.153 433.447 159.719C432.467 159.276 431.691 158.624 431.12 157.763C430.558 156.893 430.276 155.811 430.276 154.516C430.276 153.425 430.477 152.509 430.877 151.767C431.278 151.026 431.823 150.429 432.513 149.977C433.204 149.526 433.988 149.185 434.866 148.955C435.752 148.724 436.681 148.562 437.653 148.469C438.795 148.349 439.715 148.239 440.414 148.136C441.113 148.026 441.62 147.864 441.935 147.651C442.251 147.437 442.408 147.122 442.408 146.705V146.628C442.408 145.818 442.153 145.192 441.641 144.749C441.138 144.305 440.423 144.084 439.494 144.084C438.513 144.084 437.734 144.301 437.154 144.736C436.575 145.162 436.191 145.699 436.004 146.347L430.967 145.938C431.222 144.744 431.725 143.713 432.475 142.844C433.225 141.966 434.192 141.293 435.377 140.824C436.57 140.347 437.951 140.108 439.519 140.108C440.61 140.108 441.654 140.236 442.651 140.491C443.657 140.747 444.548 141.143 445.323 141.68C446.107 142.217 446.725 142.908 447.177 143.751C447.629 144.587 447.854 145.588 447.854 146.756V160H442.69V157.277H442.536C442.221 157.891 441.799 158.432 441.271 158.901C440.742 159.361 440.107 159.723 439.366 159.987C438.624 160.243 437.768 160.371 436.796 160.371ZM438.356 156.612C439.157 156.612 439.864 156.455 440.478 156.139C441.092 155.815 441.573 155.381 441.923 154.835C442.272 154.29 442.447 153.672 442.447 152.982V150.898C442.276 151.009 442.042 151.111 441.744 151.205C441.454 151.29 441.126 151.371 440.759 151.447C440.393 151.516 440.026 151.58 439.66 151.639C439.293 151.69 438.961 151.737 438.663 151.78C438.023 151.874 437.465 152.023 436.988 152.227C436.511 152.432 436.14 152.709 435.876 153.058C435.612 153.399 435.479 153.825 435.479 154.337C435.479 155.078 435.748 155.645 436.285 156.037C436.83 156.42 437.521 156.612 438.356 156.612ZM452.08 160V140.364H457.526V160H452.08ZM454.815 137.832C454.006 137.832 453.311 137.564 452.732 137.027C452.161 136.482 451.875 135.83 451.875 135.071C451.875 134.321 452.161 133.678 452.732 133.141C453.311 132.595 454.006 132.322 454.815 132.322C455.625 132.322 456.315 132.595 456.886 133.141C457.466 133.678 457.756 134.321 457.756 135.071C457.756 135.83 457.466 136.482 456.886 137.027C456.315 137.564 455.625 137.832 454.815 137.832ZM467.334 133.818V160H461.888V133.818H467.334ZM488.035 145.963L483.049 146.27C482.964 145.844 482.781 145.46 482.499 145.119C482.218 144.77 481.847 144.493 481.387 144.288C480.935 144.075 480.394 143.969 479.763 143.969C478.92 143.969 478.208 144.148 477.629 144.506C477.049 144.855 476.759 145.324 476.759 145.912C476.759 146.381 476.947 146.777 477.322 147.101C477.697 147.425 478.34 147.685 479.252 147.881L482.806 148.597C484.715 148.989 486.138 149.619 487.076 150.489C488.013 151.358 488.482 152.5 488.482 153.915C488.482 155.202 488.103 156.331 487.344 157.303C486.594 158.274 485.563 159.033 484.251 159.578C482.947 160.115 481.442 160.384 479.738 160.384C477.138 160.384 475.067 159.842 473.525 158.76C471.991 157.669 471.092 156.186 470.827 154.311L476.184 154.03C476.346 154.822 476.738 155.428 477.36 155.845C477.982 156.254 478.779 156.459 479.751 156.459C480.705 156.459 481.472 156.276 482.052 155.909C482.64 155.534 482.938 155.053 482.947 154.464C482.938 153.97 482.729 153.565 482.32 153.25C481.911 152.926 481.281 152.679 480.428 152.509L477.028 151.831C475.11 151.447 473.683 150.783 472.745 149.837C471.816 148.891 471.352 147.685 471.352 146.219C471.352 144.957 471.692 143.871 472.374 142.959C473.065 142.047 474.032 141.344 475.276 140.849C476.529 140.355 477.995 140.108 479.674 140.108C482.154 140.108 484.106 140.632 485.529 141.68C486.961 142.729 487.796 144.156 488.035 145.963Z" fill="#FAFAFA"/>
<path d="M327.479 40.348C327.376 39.3168 326.938 38.5156 326.162 37.9446C325.386 37.3736 324.334 37.0881 323.004 37.0881C322.101 37.0881 321.338 37.2159 320.716 37.4716C320.094 37.7188 319.616 38.0639 319.284 38.5071C318.96 38.9503 318.798 39.4531 318.798 40.0156C318.781 40.4844 318.879 40.8935 319.092 41.2429C319.314 41.5923 319.616 41.8949 320 42.1506C320.384 42.3977 320.827 42.6151 321.33 42.8026C321.832 42.9815 322.369 43.1349 322.94 43.2628L325.293 43.8253C326.435 44.081 327.483 44.4219 328.438 44.848C329.392 45.2741 330.219 45.7983 330.918 46.4205C331.616 47.0426 332.158 47.7756 332.541 48.6193C332.933 49.4631 333.134 50.4304 333.142 51.5213C333.134 53.1236 332.724 54.5128 331.915 55.6889C331.114 56.8565 329.955 57.7642 328.438 58.4119C326.929 59.0511 325.109 59.3707 322.979 59.3707C320.865 59.3707 319.024 59.0469 317.456 58.3991C315.896 57.7514 314.678 56.7926 313.8 55.5227C312.93 54.2443 312.474 52.6634 312.432 50.7798H317.788C317.848 51.6577 318.099 52.3906 318.543 52.9787C318.994 53.5582 319.595 53.9972 320.345 54.2955C321.104 54.5852 321.96 54.7301 322.915 54.7301C323.852 54.7301 324.666 54.5937 325.357 54.321C326.055 54.0483 326.597 53.669 326.98 53.1832C327.364 52.6974 327.555 52.1392 327.555 51.5085C327.555 50.9205 327.381 50.4261 327.031 50.0256C326.69 49.625 326.188 49.2841 325.523 49.0028C324.866 48.7216 324.061 48.4659 323.107 48.2358L320.256 47.5199C318.048 46.983 316.305 46.1435 315.027 45.0014C313.749 43.8594 313.114 42.321 313.122 40.3864C313.114 38.8011 313.536 37.4162 314.388 36.2315C315.249 35.0469 316.429 34.1222 317.929 33.4574C319.429 32.7926 321.134 32.4602 323.043 32.4602C324.986 32.4602 326.682 32.7926 328.131 33.4574C329.588 34.1222 330.722 35.0469 331.531 36.2315C332.341 37.4162 332.759 38.7884 332.784 40.348H327.479ZM345.635 59.3835C343.65 59.3835 341.932 58.9616 340.483 58.1179C339.043 57.2656 337.931 56.081 337.147 54.5639C336.363 53.0384 335.971 51.2699 335.971 49.2585C335.971 47.2301 336.363 45.4574 337.147 43.9403C337.931 42.4148 339.043 41.2301 340.483 40.3864C341.932 39.5341 343.65 39.108 345.635 39.108C347.621 39.108 349.334 39.5341 350.775 40.3864C352.223 41.2301 353.34 42.4148 354.124 43.9403C354.908 45.4574 355.3 47.2301 355.3 49.2585C355.3 51.2699 354.908 53.0384 354.124 54.5639C353.34 56.081 352.223 57.2656 350.775 58.1179C349.334 58.9616 347.621 59.3835 345.635 59.3835ZM345.661 55.1648C346.564 55.1648 347.319 54.9091 347.924 54.3977C348.529 53.8778 348.985 53.1705 349.292 52.2756C349.607 51.3807 349.765 50.3622 349.765 49.2202C349.765 48.0781 349.607 47.0597 349.292 46.1648C348.985 45.2699 348.529 44.5625 347.924 44.0426C347.319 43.5227 346.564 43.2628 345.661 43.2628C344.749 43.2628 343.982 43.5227 343.36 44.0426C342.746 44.5625 342.282 45.2699 341.966 46.1648C341.659 47.0597 341.506 48.0781 341.506 49.2202C341.506 50.3622 341.659 51.3807 341.966 52.2756C342.282 53.1705 342.746 53.8778 343.36 54.3977C343.982 54.9091 344.749 55.1648 345.661 55.1648ZM367.713 59.3835C365.702 59.3835 363.972 58.9574 362.523 58.1051C361.083 57.2443 359.975 56.0511 359.199 54.5256C358.432 53 358.049 51.2443 358.049 49.2585C358.049 47.2472 358.436 45.483 359.212 43.9659C359.996 42.4403 361.108 41.2514 362.549 40.3991C363.989 39.5384 365.702 39.108 367.688 39.108C369.401 39.108 370.901 39.419 372.188 40.0412C373.475 40.6634 374.493 41.5369 375.243 42.6619C375.993 43.7869 376.407 45.108 376.483 46.625H371.344C371.199 45.6449 370.816 44.8565 370.194 44.2599C369.58 43.6548 368.775 43.3523 367.777 43.3523C366.934 43.3523 366.196 43.5824 365.566 44.0426C364.944 44.4943 364.458 45.1548 364.108 46.0241C363.759 46.8935 363.584 47.946 363.584 49.1818C363.584 50.4347 363.755 51.5 364.096 52.3778C364.445 53.2557 364.935 53.9247 365.566 54.3849C366.196 54.8452 366.934 55.0753 367.777 55.0753C368.4 55.0753 368.958 54.9474 369.452 54.6918C369.955 54.4361 370.368 54.0653 370.692 53.5795C371.025 53.0852 371.242 52.4929 371.344 51.8026H376.483C376.398 53.3026 375.989 54.6236 375.256 55.7656C374.532 56.8991 373.53 57.7855 372.252 58.4247C370.973 59.0639 369.461 59.3835 367.713 59.3835ZM379.97 59V39.3636H385.416V59H379.97ZM382.706 36.8324C381.896 36.8324 381.202 36.5639 380.622 36.027C380.051 35.4815 379.766 34.8295 379.766 34.071C379.766 33.321 380.051 32.6776 380.622 32.1406C381.202 31.5952 381.896 31.3224 382.706 31.3224C383.516 31.3224 384.206 31.5952 384.777 32.1406C385.357 32.6776 385.646 33.321 385.646 34.071C385.646 34.8295 385.357 35.4815 384.777 36.027C384.206 36.5639 383.516 36.8324 382.706 36.8324ZM395.378 59.3707C394.125 59.3707 393.009 59.1534 392.029 58.7188C391.049 58.2756 390.273 57.6236 389.702 56.7628C389.14 55.8935 388.858 54.8111 388.858 53.5156C388.858 52.4247 389.059 51.5085 389.459 50.767C389.86 50.0256 390.405 49.429 391.096 48.9773C391.786 48.5256 392.57 48.1847 393.448 47.9545C394.334 47.7244 395.263 47.5625 396.235 47.4688C397.377 47.3494 398.297 47.2386 398.996 47.1364C399.695 47.0256 400.202 46.8636 400.517 46.6506C400.833 46.4375 400.99 46.1222 400.99 45.7045V45.6278C400.99 44.8182 400.735 44.1918 400.223 43.7486C399.721 43.3054 399.005 43.0838 398.076 43.0838C397.096 43.0838 396.316 43.3011 395.736 43.7358C395.157 44.1619 394.773 44.6989 394.586 45.3466L389.549 44.9375C389.804 43.7443 390.307 42.7131 391.057 41.8438C391.807 40.9659 392.775 40.2926 393.959 39.8239C395.152 39.3466 396.533 39.108 398.101 39.108C399.192 39.108 400.236 39.2358 401.233 39.4915C402.239 39.7472 403.13 40.1435 403.905 40.6804C404.689 41.2173 405.307 41.9077 405.759 42.7514C406.211 43.5866 406.436 44.5881 406.436 45.7557V59H401.272V56.277H401.118C400.803 56.8906 400.381 57.4318 399.853 57.9006C399.324 58.3608 398.689 58.723 397.948 58.9872C397.206 59.2429 396.35 59.3707 395.378 59.3707ZM396.938 55.6122C397.739 55.6122 398.446 55.4545 399.06 55.1392C399.674 54.8153 400.155 54.3807 400.505 53.8352C400.854 53.2898 401.029 52.6719 401.029 51.9815V49.8977C400.858 50.0085 400.624 50.1108 400.326 50.2045C400.036 50.2898 399.708 50.3707 399.341 50.4474C398.975 50.5156 398.608 50.5795 398.242 50.6392C397.875 50.6903 397.543 50.7372 397.245 50.7798C396.605 50.8736 396.047 51.0227 395.57 51.2273C395.093 51.4318 394.722 51.7088 394.458 52.0582C394.194 52.3991 394.061 52.8253 394.061 53.3366C394.061 54.0781 394.33 54.6449 394.867 55.0369C395.412 55.4205 396.103 55.6122 396.938 55.6122ZM416.108 32.8182V59H410.662V32.8182H416.108ZM434.44 32.8182V59H428.904V32.8182H434.44ZM447.764 59.3835C445.753 59.3835 444.023 58.9574 442.574 58.1051C441.134 57.2443 440.026 56.0511 439.25 54.5256C438.483 53 438.099 51.2443 438.099 49.2585C438.099 47.2472 438.487 45.483 439.263 43.9659C440.047 42.4403 441.159 41.2514 442.599 40.3991C444.04 39.5384 445.753 39.108 447.739 39.108C449.452 39.108 450.952 39.419 452.239 40.0412C453.526 40.6634 454.544 41.5369 455.294 42.6619C456.044 43.7869 456.457 45.108 456.534 46.625H451.395C451.25 45.6449 450.866 44.8565 450.244 44.2599C449.631 43.6548 448.825 43.3523 447.828 43.3523C446.984 43.3523 446.247 43.5824 445.616 44.0426C444.994 44.4943 444.509 45.1548 444.159 46.0241C443.81 46.8935 443.635 47.946 443.635 49.1818C443.635 50.4347 443.805 51.5 444.146 52.3778C444.496 53.2557 444.986 53.9247 445.616 54.3849C446.247 54.8452 446.984 55.0753 447.828 55.0753C448.45 55.0753 449.009 54.9474 449.503 54.6918C450.006 54.4361 450.419 54.0653 450.743 53.5795C451.075 53.0852 451.293 52.4929 451.395 51.8026H456.534C456.449 53.3026 456.04 54.6236 455.307 55.7656C454.582 56.8991 453.581 57.7855 452.303 58.4247C451.024 59.0639 449.511 59.3835 447.764 59.3835ZM468.893 59.3835C466.907 59.3835 465.19 58.9616 463.741 58.1179C462.301 57.2656 461.189 56.081 460.404 54.5639C459.62 53.0384 459.228 51.2699 459.228 49.2585C459.228 47.2301 459.62 45.4574 460.404 43.9403C461.189 42.4148 462.301 41.2301 463.741 40.3864C465.19 39.5341 466.907 39.108 468.893 39.108C470.879 39.108 472.592 39.5341 474.032 40.3864C475.481 41.2301 476.598 42.4148 477.382 43.9403C478.166 45.4574 478.558 47.2301 478.558 49.2585C478.558 51.2699 478.166 53.0384 477.382 54.5639C476.598 56.081 475.481 57.2656 474.032 58.1179C472.592 58.9616 470.879 59.3835 468.893 59.3835ZM468.919 55.1648C469.822 55.1648 470.576 54.9091 471.181 54.3977C471.787 53.8778 472.243 53.1705 472.549 52.2756C472.865 51.3807 473.022 50.3622 473.022 49.2202C473.022 48.0781 472.865 47.0597 472.549 46.1648C472.243 45.2699 471.787 44.5625 471.181 44.0426C470.576 43.5227 469.822 43.2628 468.919 43.2628C468.007 43.2628 467.24 43.5227 466.618 44.0426C466.004 44.5625 465.539 45.2699 465.224 46.1648C464.917 47.0597 464.764 48.0781 464.764 49.2202C464.764 50.3622 464.917 51.3807 465.224 52.2756C465.539 53.1705 466.004 53.8778 466.618 54.3977C467.24 54.9091 468.007 55.1648 468.919 55.1648ZM487.545 47.6477V59H482.099V39.3636H487.289V42.8281H487.52C487.954 41.6861 488.683 40.7827 489.706 40.1179C490.728 39.4446 491.968 39.108 493.426 39.108C494.789 39.108 495.978 39.4062 496.993 40.0028C498.007 40.5994 498.795 41.4517 499.358 42.5597C499.92 43.6591 500.201 44.9716 500.201 46.4972V59H494.755V47.4688C494.764 46.267 494.457 45.3295 493.835 44.6562C493.213 43.9744 492.356 43.6335 491.265 43.6335C490.532 43.6335 489.885 43.7912 489.322 44.1065C488.768 44.4219 488.333 44.8821 488.018 45.4872C487.711 46.0838 487.554 46.804 487.545 47.6477ZM520.832 44.9631L515.846 45.2699C515.761 44.8437 515.577 44.4602 515.296 44.1193C515.015 43.7699 514.644 43.4929 514.184 43.2884C513.732 43.0753 513.191 42.9688 512.56 42.9688C511.717 42.9688 511.005 43.1477 510.425 43.5057C509.846 43.8551 509.556 44.3239 509.556 44.9119C509.556 45.3807 509.744 45.777 510.119 46.1009C510.494 46.4247 511.137 46.6847 512.049 46.8807L515.603 47.5966C517.512 47.9886 518.935 48.6193 519.873 49.4886C520.81 50.358 521.279 51.5 521.279 52.9148C521.279 54.2017 520.9 55.331 520.141 56.3026C519.391 57.2741 518.36 58.0327 517.048 58.5781C515.744 59.1151 514.239 59.3835 512.535 59.3835C509.935 59.3835 507.864 58.8423 506.322 57.7599C504.788 56.669 503.888 55.1861 503.624 53.3111L508.981 53.0298C509.143 53.8224 509.535 54.4276 510.157 54.8452C510.779 55.2543 511.576 55.4588 512.548 55.4588C513.502 55.4588 514.269 55.2756 514.849 54.9091C515.437 54.5341 515.735 54.0526 515.744 53.4645C515.735 52.9702 515.526 52.5653 515.117 52.25C514.708 51.9261 514.077 51.679 513.225 51.5085L509.825 50.831C507.907 50.4474 506.479 49.7827 505.542 48.8366C504.613 47.8906 504.148 46.6847 504.148 45.2188C504.148 43.9574 504.489 42.8707 505.171 41.9588C505.862 41.0469 506.829 40.3438 508.073 39.8494C509.326 39.3551 510.792 39.108 512.471 39.108C514.951 39.108 516.903 39.6321 518.326 40.6804C519.758 41.7287 520.593 43.1562 520.832 44.9631Z" fill="#FAFAFA"/>
</svg>
